<svg width="242" height="70" viewBox="0 0 242 70" fill="none" xmlns="http://www.w3.org/2000/svg">
<g clip-path="url(#clip0_93_157)">
<path d="M37.2952 16.9012C38.474 18.0389 39.0653 19.6669 39.0653 21.7777V21.9424C39.0653 25.0449 37.7817 27.2305 35.2183 28.5105C32.6511 29.7867 28.9687 30.4379 24.1637 30.4641H0V0H26.0572C29.2419 0.0261976 31.7791 0.68488 33.6727 1.97605C35.5663 3.26722 36.5131 5.08982 36.5131 7.45135V7.61602C36.5131 9.4012 36.1426 10.8533 35.4016 11.9798C34.6607 13.1063 33.5492 13.9409 32.0673 14.491C34.3725 14.9588 36.1164 15.7597 37.2952 16.8975V16.9012ZM24.3059 11.8376C24.9495 11.7702 25.4997 11.5269 25.9525 11.119C26.4053 10.7111 26.6298 10.0225 26.6298 9.06063C26.6298 8.18114 26.409 7.5524 25.9712 7.16692C25.5333 6.78144 24.9683 6.54192 24.2834 6.44835C23.5986 6.35105 22.5957 6.30614 21.2784 6.30614H9.5053V11.9049C12.3307 11.9049 14.1981 11.9199 15.1037 11.9461H21.2784C22.6518 11.9461 23.6585 11.9124 24.3059 11.8451V11.8376ZM26.0984 23.4469C26.8656 23.3496 27.483 23.0763 27.9508 22.6235C28.4186 22.1707 28.6506 21.4521 28.6506 20.4603C28.6506 19.4686 28.4186 18.8061 27.9508 18.3832C27.483 17.9566 26.8656 17.6984 26.0984 17.601C25.3313 17.5037 24.1786 17.4588 22.6406 17.4588H9.50904V23.5516C13.3785 23.5516 16.1291 23.5591 17.7644 23.5741C19.3961 23.5891 20.515 23.5928 21.1212 23.5928H22.6443C24.1824 23.5928 25.335 23.5442 26.1022 23.4506L26.0984 23.4469Z" fill="black"/>
<path d="M61.1706 8.02783H70.6384V30.4642H61.1706V27.6648C59.0861 30.0263 55.9164 31.2052 51.6615 31.2052C48.286 31.2052 45.6702 30.1199 43.8178 27.953C41.9653 25.7861 41.041 22.2307 41.041 17.2906V8.02783H50.5089V17.1671C50.5089 18.8961 50.6062 20.3108 50.7971 21.4073C50.9879 22.5039 51.4557 23.4245 52.1966 24.1656C52.9376 24.9066 54.0902 25.2771 55.6545 25.2771C57.8212 25.2771 59.2845 24.5286 60.0404 23.0353C60.7963 21.5383 61.1706 19.5847 61.1706 17.1708V8.03157V8.02783Z" fill="black"/>
<path d="M89.3684 17.0846L91.7148 17.0435C94.9518 17.0435 97.5789 17.4626 99.596 18.2972C101.613 19.1355 102.623 20.801 102.623 23.301C102.623 26.5382 101.123 28.7014 98.1178 29.783C95.1127 30.8683 91.6736 31.411 87.8041 31.411C83.9347 31.411 80.4431 30.8421 77.2473 29.7007C74.0514 28.5629 72.4497 26.3736 72.4497 23.1326H81.9999C81.9999 24.4237 82.5613 25.2808 83.6877 25.7074C84.8141 26.1341 86.1837 26.3474 87.8041 26.3474C89.6416 26.3474 91.0075 26.1228 91.9019 25.67C92.7925 25.2171 93.2379 24.4836 93.2379 23.4656C93.2379 22.5599 92.7177 21.9911 91.6736 21.759C90.6295 21.527 89.3123 21.4073 87.7218 21.4073H86.281C83.785 21.4073 81.5696 21.2763 79.6348 21.0143C77.7001 20.7523 76.0198 20.1311 74.594 19.143C73.1682 18.155 72.4534 16.673 72.4534 14.6969C72.4534 11.5682 73.999 9.52476 77.0863 8.56294C80.1737 7.60111 83.7326 7.12207 87.7705 7.12207C91.5838 7.12207 95.0154 7.68345 98.0616 8.80994C101.108 9.93644 102.631 12.1183 102.631 15.3556L93.163 15.3144C93.163 13.9147 92.4483 13.0502 91.0225 12.7209C89.5967 12.3915 88.4703 12.2269 87.647 12.2269C86.3858 12.2269 85.1284 12.3728 83.8823 12.661C82.6324 12.9492 82.0111 13.5891 82.0111 14.5734C82.0111 16.2201 83.8636 17.0697 87.5684 17.1258C88.3655 17.1258 88.968 17.1108 89.3796 17.0846H89.3684Z" fill="black"/>
<path d="M113.614 6.21632H104.146V0H113.614V6.21632ZM113.614 7.41018H104.146V30.4641H113.614V7.41018Z" fill="black"/>
<path d="M142.613 10.5389C144.466 12.7058 145.394 16.2612 145.394 21.2013V30.464H135.926V21.3248C135.926 19.5958 135.829 18.1811 135.638 17.0845C135.447 15.988 134.979 15.0673 134.238 14.3263C133.497 13.5853 132.345 13.2148 130.78 13.2148C129.134 13.2148 127.914 13.5666 127.117 14.2627C126.32 14.9625 125.814 15.8607 125.594 16.9573C125.373 18.0538 125.264 19.4947 125.264 21.2799V30.4603H115.796V8.02764H125.264V10.827C127.349 8.46551 130.518 7.28662 134.773 7.28662C138.149 7.28662 140.765 8.37195 142.613 10.5389Z" fill="black"/>
<path d="M178.284 20.1723H156.343C156.534 21.9014 157.189 23.3198 158.297 24.4351C159.408 25.5466 160.924 26.1042 162.847 26.1042C164.412 26.1042 165.804 25.7262 167.027 24.9702C168.247 24.2142 168.857 23.0578 168.857 21.4897H178.284C178.284 24.6746 176.918 27.1035 174.186 28.7764C171.454 30.4493 167.66 31.2876 162.802 31.2876C159.812 31.2876 157.096 30.7786 154.652 29.7644C152.208 28.7502 150.273 27.313 148.848 25.4605C147.422 23.608 146.707 21.4859 146.707 19.0982C146.707 16.7105 147.414 14.5473 148.829 12.6948C150.243 10.8422 152.178 9.41634 154.633 8.41335C157.088 7.41035 159.812 6.9126 162.806 6.9126C165.8 6.9126 168.577 7.40661 170.897 8.39463C173.217 9.38266 175.021 10.7749 176.312 12.5713C177.603 14.3677 178.262 16.4747 178.288 18.8886V19.0945V20.1648L178.284 20.1723ZM158.649 13.0915C157.687 13.8587 157.028 14.9291 156.673 16.3026H168.61C168.307 14.9291 167.705 13.8587 166.799 13.0915C165.894 12.3243 164.561 11.9388 162.806 11.9388C161.051 11.9388 159.61 12.3243 158.649 13.0915Z" fill="black"/>
<path d="M196.479 17.0846L198.826 17.0435C202.063 17.0435 204.69 17.4626 206.707 18.2972C208.724 19.1355 209.734 20.801 209.734 23.301C209.734 26.5382 208.234 28.7014 205.229 29.783C202.224 30.8683 198.784 31.411 194.915 31.411C191.045 31.411 187.554 30.8421 184.358 29.7007C181.162 28.5629 179.561 26.3736 179.561 23.1326H189.111C189.111 24.4237 189.672 25.2808 190.799 25.7074C191.925 26.1341 193.295 26.3474 194.915 26.3474C196.752 26.3474 198.118 26.1228 199.013 25.67C199.903 25.2171 200.349 24.4836 200.349 23.4656C200.349 22.5599 199.829 21.9911 198.784 21.759C197.74 21.527 196.423 21.4073 194.833 21.4073H193.392C190.896 21.4073 188.68 21.2763 186.746 21.0143C184.811 20.7523 183.131 20.1311 181.705 19.143C180.279 18.155 179.564 16.673 179.564 14.6969C179.564 11.5682 181.11 9.52476 184.197 8.56294C187.285 7.60111 190.843 7.12207 194.881 7.12207C198.695 7.12207 202.126 7.68345 205.172 8.80994C208.219 9.93644 209.742 12.1183 209.742 15.3556L200.274 15.3144C200.274 13.9147 199.559 13.0502 198.133 12.7209C196.708 12.3915 195.581 12.2269 194.758 12.2269C193.497 12.2269 192.239 12.3728 190.993 12.661C189.743 12.9492 189.122 13.5891 189.122 14.5734C189.122 16.2201 190.974 17.0697 194.679 17.1258C195.476 17.1258 196.079 17.1108 196.49 17.0846H196.479Z" fill="black"/>
<path d="M227.846 17.0846L230.193 17.0435C233.43 17.0435 236.057 17.4626 238.074 18.2972C240.091 19.1355 241.101 20.801 241.101 23.301C241.101 26.5382 239.601 28.7014 236.596 29.783C233.591 30.8683 230.152 31.411 226.282 31.411C222.413 31.411 218.921 30.8421 215.725 29.7007C212.529 28.5629 210.928 26.3736 210.928 23.1326H220.478C220.478 24.4237 221.039 25.2808 222.166 25.7074C223.292 26.1341 224.662 26.3474 226.282 26.3474C228.12 26.3474 229.486 26.1228 230.38 25.67C231.271 25.2171 231.716 24.4836 231.716 23.4656C231.716 22.5599 231.196 21.9911 230.152 21.759C229.108 21.527 227.79 21.4073 226.2 21.4073H224.759C222.263 21.4073 220.048 21.2763 218.113 21.0143C216.178 20.7523 214.498 20.1311 213.072 19.143C211.646 18.155 210.931 16.673 210.931 14.6969C210.931 11.5682 212.477 9.52476 215.564 8.56294C218.652 7.60111 222.211 7.12207 226.248 7.12207C230.062 7.12207 233.493 7.68345 236.54 8.80994C239.586 9.93644 241.109 12.1183 241.109 15.3556L231.641 15.3144C231.641 13.9147 230.926 13.0502 229.5 12.7209C228.075 12.3915 226.948 12.2269 226.125 12.2269C224.864 12.2269 223.606 12.3728 222.36 12.661C221.11 12.9492 220.489 13.5891 220.489 14.5734C220.489 16.2201 222.342 17.0697 226.046 17.1258C226.843 17.1258 227.446 17.1108 227.858 17.0846H227.846Z" fill="black"/>
<path d="M10.1677 49.622H26.4277V38.7949H36.5542V69.259H26.4277V57.6085H10.1677V69.259H0V38.7949H10.1677V49.622Z" fill="black"/>
<path d="M59.442 46.8188H68.9099V69.2552H59.442V66.4558C57.3576 68.8174 54.1879 69.9962 49.933 69.9962C46.5575 69.9962 43.9417 68.9109 42.0892 66.744C40.2368 64.5771 39.3125 61.0217 39.3125 56.0816V46.8188H48.7804V55.9581C48.7804 57.6871 48.8777 59.1018 49.0685 60.1983C49.2594 61.2949 49.7272 62.2156 50.4681 62.9566C51.2091 63.6976 52.3617 64.0681 53.926 64.0681C56.0927 64.0681 57.5559 63.3196 58.3119 61.8263C59.0678 60.3293 59.442 58.3757 59.442 55.9618V46.8226V46.8188Z" fill="black"/>
<path d="M102.047 57.6871C102.021 59.9364 101.538 61.9761 100.607 63.8024C99.6747 65.6287 98.3911 67.0696 96.7595 68.125C95.1279 69.1804 93.253 69.7118 91.1387 69.7118C86.1727 69.8204 82.5352 68.75 80.23 66.5008L79.736 69.1767H71.0503V38.7949H80.5182V49.2103C82.8496 47.0696 86.3898 45.9993 91.1387 45.9993C93.253 45.9993 95.1316 46.5419 96.7782 47.6235C98.4248 48.7088 99.7009 50.1273 100.607 51.8862C101.512 53.6415 101.991 55.494 102.047 57.4439V57.6909V57.6871ZM90.9328 62.3204C91.9769 61.1003 92.5121 59.5397 92.5383 57.6497C92.5121 56.003 91.9694 54.5808 90.9104 53.387C89.8551 52.1931 88.3507 51.5981 86.4047 51.5981C84.6496 51.5981 83.2276 52.1744 82.1423 53.3271C81.0571 54.4798 80.5182 56.018 80.5182 57.9379V58.0614C80.5182 59.1317 80.7726 60.1347 81.2816 61.0666C81.7905 61.9985 82.4903 62.747 83.381 63.3084C84.2716 63.8698 85.282 64.1542 86.4085 64.1542C88.3844 64.1542 89.8925 63.5442 90.9366 62.3204H90.9328Z" fill="black"/>
<path d="M215.228 38.7949H118.203C112.701 38.7949 108.241 43.256 108.241 48.7575V60.0412C108.241 65.5389 112.701 70 118.203 70H215.228C220.729 70 225.19 65.5389 225.19 60.0412V48.7575C225.19 43.256 220.729 38.7949 215.228 38.7949ZM222.005 60.0412C222.005 63.7762 218.966 66.8189 215.228 66.8189H118.203C114.464 66.8189 111.425 63.7762 111.425 60.0412V48.7575C111.425 45.0187 114.464 41.9761 118.203 41.9761H215.228C218.966 41.9761 222.005 45.0187 222.005 48.7575V60.0412Z" fill="black"/>
<path d="M129.526 47.0024C131.147 47.0024 132.318 47.3767 133.04 48.1177C133.763 48.8625 134.126 50.0526 134.126 51.6881V53.855C134.126 55.5054 133.763 56.6993 133.04 57.4366C132.318 58.1739 131.147 58.5444 129.526 58.5444H125.893V61.7629H121.907V47.0024H129.53H129.526ZM128.542 55.1948C128.98 55.1948 129.306 55.1611 129.515 55.0975C129.729 55.0301 129.878 54.8991 129.976 54.7045C130.069 54.5062 130.118 54.1881 130.118 53.7502V51.9313C130.118 51.4935 130.069 51.1679 129.976 50.9583C129.882 50.745 129.725 50.599 129.504 50.5204C129.287 50.4418 128.965 50.4006 128.542 50.4006H125.893V55.1986H128.542V55.1948Z" fill="black"/>
<path d="M136.184 47.0024H143.695C145.33 47.0024 146.52 47.3168 147.265 47.9456C148.009 48.5743 148.38 49.611 148.38 51.0556V51.8003C148.38 53.0429 148.118 53.9635 147.59 54.5698C147.066 55.1761 146.224 55.5316 145.072 55.6327V55.7637C146.224 55.8647 147.074 56.1679 147.624 56.6731C148.17 57.1783 148.444 57.8819 148.444 58.7876V61.7667H144.413V59.2704C144.413 58.7315 144.278 58.3348 144.009 58.0878C143.74 57.8408 143.362 57.7135 142.883 57.7135H140.166V61.7667H136.18V47.0062L136.184 47.0024ZM142.688 54.581C143.302 54.581 143.74 54.4538 144.001 54.1993C144.263 53.9448 144.394 53.4807 144.394 52.8071V51.5571C144.394 51.1791 144.338 50.8947 144.23 50.715C144.121 50.5316 143.957 50.4119 143.736 50.352C143.519 50.2921 143.204 50.2659 142.793 50.2659H140.166V54.581H142.684H142.688Z" fill="black"/>
<path d="M150.955 49.3899C151.254 48.5142 151.879 47.8518 152.826 47.4064C153.776 46.961 155.206 46.7402 157.118 46.7402C159.03 46.7402 160.456 46.9648 161.399 47.4064C162.342 47.8518 162.963 48.5142 163.27 49.3899C163.577 50.2657 163.731 51.4857 163.731 53.0464V55.6961C163.731 57.3465 163.562 58.6152 163.225 59.506C162.889 60.3967 162.252 61.0441 161.309 61.4446C160.366 61.845 158.97 62.0471 157.114 62.0471C155.258 62.0471 153.844 61.845 152.908 61.4446C151.972 61.0441 151.34 60.4004 151.003 59.5172C150.666 58.6339 150.498 57.3615 150.498 55.6961V53.0464C150.498 51.4857 150.648 50.2657 150.947 49.3899H150.955ZM154.689 57.616C154.79 57.9753 155.022 58.2298 155.378 58.3832C155.737 58.5366 156.317 58.6115 157.118 58.6115C157.919 58.6115 158.484 58.5366 158.847 58.3832C159.21 58.2298 159.446 57.9753 159.547 57.616C159.648 57.2567 159.7 56.6991 159.7 55.9393V52.8069C159.7 52.0621 159.644 51.5119 159.536 51.1527C159.427 50.7934 159.191 50.5389 158.836 50.3854C158.477 50.232 157.904 50.1572 157.118 50.1572C156.332 50.1572 155.752 50.232 155.389 50.3854C155.022 50.5389 154.79 50.7934 154.689 51.1527C154.588 51.5119 154.536 52.0621 154.536 52.8069V55.9393C154.536 56.6991 154.588 57.2567 154.689 57.616Z" fill="black"/>
<path d="M167.106 58.5889C167.604 58.5889 167.959 58.4654 168.18 58.2184C168.401 57.9714 168.509 57.5747 168.509 57.0358V47.0059H172.495V57.1668C172.495 58.8172 172.109 60.0373 171.335 60.8232C170.56 61.6129 169.467 62.0059 168.049 62.0059C167.289 62.0059 166.29 61.9385 165.048 61.8075L164.542 61.7626L164.565 58.544C165.134 58.574 165.98 58.5889 167.106 58.5889Z" fill="black"/>
<path d="M175.343 47.0024H185.548V50.2659H179.351V53.0466H185.308V56.0481H179.351V58.4994H185.593V61.7629H175.343V47.0024Z" fill="black"/>
<path d="M189.675 61.3399C188.747 60.8796 188.13 60.2284 187.823 59.3789C187.516 58.5331 187.363 57.3841 187.363 55.9395V52.6985C187.363 51.295 187.524 50.176 187.846 49.3377C188.167 48.4994 188.785 47.8557 189.698 47.4103C190.611 46.9649 191.951 46.7441 193.717 46.7441C194.563 46.7441 195.558 46.8265 196.707 46.9949C197.852 47.1633 198.769 47.3729 199.454 47.6199V54.8467H195.82V50.3557C195.543 50.2546 195.251 50.191 194.945 50.1685C194.638 50.1461 194.245 50.1349 193.762 50.1349C193.017 50.1349 192.475 50.2284 192.13 50.4193C191.786 50.6102 191.58 50.8647 191.505 51.1865C191.431 51.5084 191.397 51.9911 191.397 52.6311V55.9395C191.397 56.7142 191.438 57.2681 191.517 57.6049C191.595 57.9417 191.824 58.1925 192.194 58.3609C192.565 58.5293 193.189 58.6117 194.065 58.6117L199.364 58.5667V61.6543C197.291 61.9013 195.442 62.0286 193.822 62.0286C191.981 62.0286 190.6 61.8003 189.672 61.3399H189.675Z" fill="black"/>
<path d="M204.031 50.4194H200.569V47.0024H211.519V50.4194H208.016V61.7629H204.031V50.4194Z" fill="black"/>
</g>
<defs>
<clipPath id="clip0_93_157">
<rect width="241.102" height="70" fill="white"/>
</clipPath>
</defs>
</svg>
