<svg width="448" height="70" viewBox="0 0 448 70" fill="none" xmlns="http://www.w3.org/2000/svg">
<g clip-path="url(#clip0_93_180)">
<path d="M424.373 22.2971V0.0180297H448V25.2466H427.322V44.7535H448V69.9694H424.379V47.7409H406.429V69.9884H382.663V47.8928H365.188V70.001H0V0.00537109H365.143V22.525H382.637V0.0180297H406.372V22.2971H424.366H424.373ZM358.751 63.5388V41.3673H379.055V28.9429H358.694V6.4296H6.43056V63.5388H358.751ZM403.467 25.3415H385.65V44.6838H403.467V25.3415Z" fill="black"/>
<path d="M180.708 53.2473C174.625 53.0195 168.669 52.3549 163.055 49.8548C159.707 48.3611 156.77 46.3168 154.739 43.1901C151.485 38.1963 151.973 32.0379 155.986 27.0757C159.644 22.5439 164.524 19.9742 170.056 18.6008C178.885 16.4172 187.619 16.6514 196.139 20.0945C199.924 21.6262 203.215 23.8921 205.721 27.1643C211.133 34.2151 209.664 42.6774 202.158 47.7978C198.449 50.3295 194.278 51.684 189.898 52.3296C186.86 52.779 183.778 52.9499 180.714 53.241L180.708 53.2473ZM182.113 47.2851C183.455 47.1649 185.917 47.0636 188.341 46.7028C191.961 46.1585 195.43 45.1268 198.379 42.804C202.335 39.6773 203.057 35.0886 200.196 30.9492C198.24 28.1137 195.468 26.3035 192.303 25.1136C185.581 22.5819 178.727 22.449 171.815 24.2465C168.062 25.2212 164.701 26.9301 162.1 29.9049C158.644 33.8544 158.802 38.7976 162.6 42.1837C163.72 43.1774 165.055 44.0002 166.416 44.6395C171.024 46.8104 175.992 47.1902 182.107 47.2978L182.113 47.2851Z" fill="black"/>
<path d="M82.091 53.2156C75.9959 53.0573 70.0463 52.3421 64.4259 49.861C61.3056 48.4876 58.5523 46.6078 56.5016 43.8229C52.5901 38.5063 53.1914 31.5061 58.0017 26.2211C61.8499 21.9932 66.7488 19.607 72.2236 18.3728C80.401 16.531 88.5152 16.7398 96.4395 19.6766C100.705 21.2526 104.421 23.6641 107.187 27.3667C112.18 34.0441 111.022 42.1203 104.357 47.1521C100.446 50.1079 95.9395 51.6142 91.1672 52.3295C88.1608 52.7788 85.1164 52.9307 82.0846 53.2156H82.091ZM82.3505 47.342C84.7303 47.1394 87.1228 47.0445 89.4836 46.7154C92.971 46.2343 96.3192 45.2406 99.2307 43.152C103.756 39.9114 104.522 34.9049 101.186 30.4681C99.5851 28.3478 97.4965 26.8034 95.0977 25.7274C87.9835 22.5438 80.6289 22.3096 73.1667 24.2211C69.2678 25.2211 65.7804 27.006 63.1727 30.1896C59.7106 34.4176 60.3119 39.5633 64.7171 42.8102C65.9576 43.7216 67.3564 44.4875 68.7805 45.0634C73.116 46.823 77.6921 47.2597 82.3441 47.342H82.3505Z" fill="black"/>
<path d="M305.584 52.5957V17.658C305.933 17.639 306.236 17.6137 306.54 17.6137C312.711 17.6137 318.882 17.4998 325.047 17.6454C331.832 17.8036 338.187 19.5695 343.674 23.7341C347.149 26.3734 349.44 29.7659 349.7 34.2914C350.003 39.5384 347.858 43.6334 343.775 46.7728C339.339 50.1842 334.18 51.9881 328.693 52.3046C321.851 52.697 314.983 52.5324 308.123 52.602C307.3 52.6084 306.477 52.602 305.591 52.602L305.584 52.5957ZM312.534 46.9563C318.003 46.7728 323.433 46.7664 328.838 46.3424C332.414 46.0639 335.769 44.7031 338.699 42.5321C344.256 38.4118 344.155 31.3103 338.415 27.4747C334.275 24.7088 329.56 23.6075 324.648 23.4303C320.946 23.2974 317.23 23.405 313.521 23.405C313.218 23.405 312.92 23.443 312.534 23.4683V46.9563Z" fill="black"/>
<path d="M249.058 52.5891C246.083 52.5891 243.108 52.6017 240.14 52.5701C239.842 52.5701 239.513 52.3169 239.26 52.108C233.899 47.6649 228.544 43.209 223.19 38.7532C222.924 38.5317 222.646 38.3292 222.203 37.9874V52.5384H215.259V17.6767C215.531 17.6577 215.797 17.6134 216.069 17.6134C220.886 17.6134 225.709 17.5058 230.526 17.6387C235.026 17.7653 239.33 18.797 242.969 21.6325C247.273 24.9807 247.089 30.4112 242.614 33.5442C239.646 35.6266 236.241 36.4937 232.709 36.9684C232.196 37.038 231.684 37.1013 230.931 37.1962C234.102 39.8355 237.121 42.3483 240.14 44.8673C243.14 47.3674 246.146 49.8675 249.153 52.3675L249.064 52.5891H249.058ZM222.297 31.3163C225.165 31.3163 227.975 31.4619 230.766 31.272C233.178 31.1074 235.545 30.4682 237.684 29.2593C239.437 28.2656 239.5 26.7655 237.817 25.6263C237.108 25.1516 236.304 24.7845 235.507 24.4807C231.222 22.8477 226.753 23.6262 222.297 23.4173V31.3163Z" fill="black"/>
<path d="M27.773 33.3289C36.3935 39.7404 44.8937 46.0571 53.6598 52.5699C51.9319 52.5699 50.5015 52.5699 49.071 52.5699C47.2355 52.5699 45.2608 52.9687 43.6025 52.4243C41.9443 51.88 40.6024 50.3736 39.134 49.2787C34.0453 45.4938 28.9629 41.7025 23.8804 37.9176C23.6146 37.7214 23.3298 37.5442 22.8994 37.2594V52.5003H15.8296V17.6512H22.8045V29.3794C23.2792 29.1262 23.602 28.9806 23.9058 28.7971C29.8363 25.221 35.7542 21.6387 41.7037 18.0879C42.2038 17.7904 42.8557 17.6259 43.4443 17.6132C46.3241 17.5626 49.1976 17.5942 52.0774 17.5942C52.4129 17.5942 52.7484 17.5942 53.0775 17.5942C53.1028 17.6702 53.1281 17.7398 53.1471 17.8158C44.7291 22.9678 36.3049 28.1199 27.773 33.3352V33.3289Z" fill="black"/>
<path d="M277.476 14.9233C285.609 27.525 293.635 39.9557 301.793 52.589C299.692 52.589 297.8 52.4877 295.926 52.6206C294.502 52.7282 293.692 52.2852 293.002 51.0003C291.73 48.6268 290.211 46.3799 288.844 44.0507C288.496 43.4558 288.097 43.2722 287.432 43.2786C280.78 43.3039 274.122 43.3039 267.47 43.2786C266.78 43.2786 266.406 43.5128 266.071 44.0824C264.514 46.7027 262.906 49.2851 261.356 51.9054C261.052 52.4181 260.723 52.6079 260.128 52.6016C257.881 52.57 255.628 52.589 253.14 52.589C261.28 39.9873 269.318 27.544 277.47 14.9233H277.476ZM277.457 26.949C275.071 30.5187 272.812 33.8986 270.463 37.4176H284.344C282.027 33.8986 279.793 30.5061 277.457 26.949Z" fill="black"/>
<path d="M152.675 18.0501C150.093 20.5185 147.479 22.9426 144.941 25.4553C141.688 28.6706 138.491 31.9492 135.308 35.2278C134.991 35.5506 134.782 36.1202 134.776 36.5759C134.738 41.5001 134.751 46.418 134.751 51.3421C134.751 51.7156 134.751 52.089 134.751 52.5257H127.858V51.3801C127.858 46.4939 127.877 41.6014 127.833 36.7151C127.833 36.1645 127.573 35.4873 127.2 35.0948C121.966 29.6073 116.687 24.1515 111.421 18.6956C111.162 18.4235 110.915 18.1387 110.465 17.645C111.339 17.645 111.972 17.645 112.605 17.645C114.44 17.645 116.282 17.683 118.117 17.626C118.89 17.6007 119.396 17.8728 119.915 18.4108C123.624 22.2464 127.365 26.0503 131.099 29.8605C131.219 29.9808 131.358 30.0884 131.308 30.0441C133.244 28.2149 135.181 26.449 137.055 24.6072C139.226 22.4679 141.333 20.259 143.479 18.0944C143.688 17.8855 143.979 17.6323 144.238 17.6323C146.96 17.6007 149.688 17.6133 152.41 17.6133C152.498 17.7589 152.587 17.9045 152.675 18.0501Z" fill="black"/>
</g>
<defs>
<clipPath id="clip0_93_180">
<rect width="448" height="69.9893" fill="white" transform="translate(0 0.00537109)"/>
</clipPath>
</defs>
</svg>
