<?xml version="1.0" encoding="utf-8"?>
<!-- Generator: Adobe Illustrator 26.0.1, SVG Export Plug-In . SVG Version: 6.00 Build 0)  -->
<svg version="1.1" id="Layer_1" xmlns="http://www.w3.org/2000/svg" xmlns:xlink="http://www.w3.org/1999/xlink" x="0px" y="0px"
	 viewBox="0 0 1920 1080" style="enable-background:new 0 0 1920 1080;" xml:space="preserve">
<style type="text/css">
	.st0{fill:#B8ED43;}
</style>
<rect x="994.55" y="-1440.33" width="2120.89" height="1192.89"/>
<g>
	<path class="st0" d="M1853.08,290.99H1724.6c-15.21,0-27.53-12.33-27.53-27.53V134.97c0-15.21,12.33-27.53,27.53-27.53h128.48
		c15.21,0,27.53,12.33,27.53,27.53v128.48C1880.61,278.66,1868.29,290.99,1853.08,290.99z"/>
	<g>
		<path d="M1823.15,203.08c2.74,2.64,4.1,6.41,4.1,11.31v0.38c0,7.19-2.98,12.27-8.93,15.23c-5.95,2.96-14.5,4.47-25.63,4.53h-0.19
			h-3.72h-52.12v-70.65h60.43c7.38,0.07,13.27,1.59,17.66,4.58c4.39,2.99,6.59,7.22,6.59,12.7v0.38c0,4.14-0.86,7.51-2.58,10.12
			c-1.72,2.61-4.3,4.55-7.73,5.82C1816.37,198.58,1820.41,200.44,1823.15,203.08 M1793.03,191.34c1.49-0.16,2.77-0.72,3.82-1.67
			c1.05-0.95,1.58-2.54,1.58-4.77c0-2.04-0.51-3.5-1.53-4.39c-1.02-0.89-2.32-1.45-3.91-1.67c-1.59-0.22-3.91-0.33-6.97-0.33h-0.09
			h-27.21v12.98c6.55,0,10.88,0.03,12.98,0.09h4.58h9.74C1789.2,191.58,1791.54,191.5,1793.03,191.34 M1797.18,218.26
			c1.78-0.22,3.21-0.86,4.3-1.91c1.08-1.05,1.62-2.72,1.62-5.01c0-2.23-0.54-3.83-1.62-4.82c-1.08-0.99-2.52-1.59-4.3-1.81
			c-1.78-0.22-4.46-0.33-8.02-0.33h-0.09h-30.36v14.13c8.97,0,15.35,0.02,19.14,0.05c3.79,0.03,6.38,0.05,7.78,0.05h3.53
			C1792.73,218.59,1795.4,218.48,1797.18,218.26"/>
		<path d="M1834.15,234.54h-0.03c-3.79,0-6.87-3.07-6.87-6.87v-0.03c0-3.79,3.07-6.87,6.87-6.87h0.03c3.79,0,6.87,3.07,6.87,6.87
			v0.03C1841.02,231.46,1837.95,234.54,1834.15,234.54z"/>
	</g>
</g>
<g>
	<path d="M1772.25,966.54h-128.48c-15.21,0-27.53-12.33-27.53-27.53V810.53c0-15.21,12.33-27.53,27.53-27.53h128.48
		c15.21,0,27.53,12.33,27.53,27.53v128.48C1799.78,954.22,1787.45,966.54,1772.25,966.54z"/>
	<g>
		<path class="st0" d="M1742.32,878.64c2.74,2.64,4.11,6.41,4.11,11.31v0.38c0,7.19-2.98,12.27-8.93,15.23
			c-5.95,2.96-14.5,4.47-25.63,4.53h-0.19h-3.72h-52.12v-70.65h60.43c7.38,0.07,13.27,1.59,17.66,4.58
			c4.39,2.99,6.59,7.22,6.59,12.7v0.38c0,4.14-0.86,7.51-2.58,10.12c-1.72,2.61-4.3,4.55-7.73,5.82
			C1735.54,874.13,1739.58,876,1742.32,878.64 M1712.2,866.89c1.49-0.16,2.77-0.72,3.82-1.67c1.05-0.95,1.58-2.54,1.58-4.77
			c0-2.04-0.51-3.5-1.53-4.39c-1.02-0.89-2.32-1.45-3.91-1.67c-1.59-0.22-3.91-0.33-6.97-0.33h-0.09h-27.21v12.98
			c6.55,0,10.88,0.03,12.98,0.09h4.58h9.74C1708.36,867.13,1710.7,867.05,1712.2,866.89 M1716.35,893.82
			c1.78-0.22,3.21-0.86,4.3-1.91c1.08-1.05,1.62-2.72,1.62-5.01c0-2.23-0.54-3.83-1.62-4.82c-1.08-0.99-2.52-1.59-4.3-1.81
			c-1.78-0.22-4.46-0.33-8.02-0.33h-0.09h-30.36v14.13c8.97,0,15.35,0.02,19.14,0.05c3.79,0.03,6.38,0.05,7.78,0.05h3.53
			C1711.9,894.15,1714.57,894.04,1716.35,893.82"/>
		<path class="st0" d="M1753.32,910.09h-0.03c-3.79,0-6.87-3.07-6.87-6.87v-0.03c0-3.79,3.07-6.87,6.87-6.87h0.03
			c3.79,0,6.87,3.07,6.87,6.87v0.03C1760.19,907.02,1757.11,910.09,1753.32,910.09z"/>
	</g>
</g>
<g>
	<path class="st0" d="M1853.08,741.36H1724.6c-15.21,0-27.53-12.33-27.53-27.53V585.34c0-15.21,12.33-27.53,27.53-27.53h128.48
		c15.21,0,27.53,12.33,27.53,27.53v128.48C1880.61,729.03,1868.29,741.36,1853.08,741.36z"/>
	<g>
		<path d="M1823.15,653.45c2.74,2.64,4.1,6.41,4.1,11.31v0.38c0,7.19-2.98,12.27-8.93,15.23c-5.95,2.96-14.5,4.47-25.63,4.53h-0.19
			h-3.72h-52.12v-70.65h60.43c7.38,0.07,13.27,1.59,17.66,4.58c4.39,2.99,6.59,7.22,6.59,12.7v0.38c0,4.14-0.86,7.51-2.58,10.12
			c-1.72,2.61-4.3,4.55-7.73,5.82C1816.37,648.95,1820.41,650.81,1823.15,653.45 M1793.03,641.71c1.49-0.16,2.77-0.72,3.82-1.67
			c1.05-0.95,1.58-2.54,1.58-4.77c0-2.04-0.51-3.5-1.53-4.39c-1.02-0.89-2.32-1.45-3.91-1.67c-1.59-0.22-3.91-0.33-6.97-0.33h-0.09
			h-27.21v12.98c6.55,0,10.88,0.03,12.98,0.09h4.58h9.74C1789.2,641.95,1791.54,641.87,1793.03,641.71 M1797.18,668.63
			c1.78-0.22,3.21-0.86,4.3-1.91c1.08-1.05,1.62-2.72,1.62-5.01c0-2.23-0.54-3.83-1.62-4.82c-1.08-0.99-2.52-1.59-4.3-1.81
			c-1.78-0.22-4.46-0.33-8.02-0.33h-0.09h-30.36v14.13c8.97,0,15.35,0.02,19.14,0.05c3.79,0.03,6.38,0.05,7.78,0.05h3.53
			C1792.73,668.96,1795.4,668.85,1797.18,668.63"/>
		<path d="M1834.15,684.91h-0.03c-3.79,0-6.87-3.07-6.87-6.87v-0.03c0-3.79,3.07-6.87,6.87-6.87h0.03c3.79,0,6.87,3.07,6.87,6.87
			v0.03C1841.02,681.83,1837.95,684.91,1834.15,684.91z"/>
	</g>
</g>
<g>
	<path d="M1772.25,516.17h-128.48c-15.21,0-27.53-12.33-27.53-27.53V360.16c0-15.21,12.33-27.53,27.53-27.53h128.48
		c15.21,0,27.53,12.33,27.53,27.53v128.48C1799.78,503.85,1787.45,516.17,1772.25,516.17z"/>
	<g>
		<path class="st0" d="M1742.32,428.27c2.74,2.64,4.11,6.41,4.11,11.31v0.38c0,7.19-2.98,12.27-8.93,15.23
			c-5.95,2.96-14.5,4.47-25.63,4.53h-0.19h-3.72h-52.12v-70.65h60.43c7.38,0.07,13.27,1.59,17.66,4.58
			c4.39,2.99,6.59,7.22,6.59,12.7v0.38c0,4.14-0.86,7.51-2.58,10.12c-1.72,2.61-4.3,4.55-7.73,5.82
			C1735.54,423.76,1739.58,425.63,1742.32,428.27 M1712.2,416.52c1.49-0.16,2.77-0.72,3.82-1.67c1.05-0.95,1.58-2.54,1.58-4.77
			c0-2.04-0.51-3.5-1.53-4.39c-1.02-0.89-2.32-1.45-3.91-1.67c-1.59-0.22-3.91-0.33-6.97-0.33h-0.09h-27.21v12.98
			c6.55,0,10.88,0.03,12.98,0.09h4.58h9.74C1708.36,416.76,1710.7,416.68,1712.2,416.52 M1716.35,443.45
			c1.78-0.22,3.21-0.86,4.3-1.91c1.08-1.05,1.62-2.72,1.62-5.01c0-2.23-0.54-3.83-1.62-4.82c-1.08-0.99-2.52-1.59-4.3-1.81
			c-1.78-0.22-4.46-0.33-8.02-0.33h-0.09h-30.36v14.13c8.97,0,15.35,0.02,19.14,0.05c3.79,0.03,6.38,0.05,7.78,0.05h3.53
			C1711.9,443.78,1714.57,443.67,1716.35,443.45"/>
		<path class="st0" d="M1753.32,459.72h-0.03c-3.79,0-6.87-3.07-6.87-6.87v-0.03c0-3.79,3.07-6.87,6.87-6.87h0.03
			c3.79,0,6.87,3.07,6.87,6.87v0.03C1760.19,456.65,1757.11,459.72,1753.32,459.72z"/>
	</g>
</g>
<g>
	<path class="st0" d="M1627.1,290.99h-128.48c-15.21,0-27.53-12.33-27.53-27.53V134.97c0-15.21,12.33-27.53,27.53-27.53h128.48
		c15.21,0,27.53,12.33,27.53,27.53v128.48C1654.63,278.66,1642.3,290.99,1627.1,290.99z"/>
	<g>
		<path d="M1597.17,203.08c2.74,2.64,4.11,6.41,4.11,11.31v0.38c0,7.19-2.98,12.27-8.93,15.23c-5.95,2.96-14.5,4.47-25.63,4.53
			h-0.19h-3.72h-52.12v-70.65h60.43c7.38,0.07,13.27,1.59,17.66,4.58c4.39,2.99,6.59,7.22,6.59,12.7v0.38
			c0,4.14-0.86,7.51-2.58,10.12c-1.72,2.61-4.3,4.55-7.73,5.82C1590.39,198.58,1594.43,200.44,1597.17,203.08 M1567.05,191.34
			c1.49-0.16,2.77-0.72,3.82-1.67c1.05-0.95,1.58-2.54,1.58-4.77c0-2.04-0.51-3.5-1.53-4.39c-1.02-0.89-2.32-1.45-3.91-1.67
			c-1.59-0.22-3.91-0.33-6.97-0.33h-0.09h-27.21v12.98c6.55,0,10.88,0.03,12.98,0.09h4.58h9.74
			C1563.21,191.58,1565.55,191.5,1567.05,191.34 M1571.2,218.26c1.78-0.22,3.21-0.86,4.3-1.91c1.08-1.05,1.62-2.72,1.62-5.01
			c0-2.23-0.54-3.83-1.62-4.82c-1.08-0.99-2.52-1.59-4.3-1.81c-1.78-0.22-4.46-0.33-8.02-0.33h-0.09h-30.36v14.13
			c8.97,0,15.35,0.02,19.14,0.05c3.79,0.03,6.38,0.05,7.78,0.05h3.53C1566.74,218.59,1569.42,218.48,1571.2,218.26"/>
		<path d="M1608.17,234.54h-0.03c-3.79,0-6.87-3.07-6.87-6.87v-0.03c0-3.79,3.07-6.87,6.87-6.87h0.03c3.79,0,6.87,3.07,6.87,6.87
			v0.03C1615.04,231.46,1611.96,234.54,1608.17,234.54z"/>
	</g>
</g>
<g>
	<path d="M1546.26,966.54h-128.48c-15.21,0-27.53-12.33-27.53-27.53V810.53c0-15.21,12.33-27.53,27.53-27.53h128.48
		c15.21,0,27.53,12.33,27.53,27.53v128.48C1573.8,954.22,1561.47,966.54,1546.26,966.54z"/>
	<g>
		<path class="st0" d="M1516.33,878.64c2.74,2.64,4.11,6.41,4.11,11.31v0.38c0,7.19-2.98,12.27-8.93,15.23
			c-5.95,2.96-14.5,4.47-25.63,4.53h-0.19h-3.72h-52.12v-70.65h60.43c7.38,0.07,13.27,1.59,17.66,4.58
			c4.39,2.99,6.59,7.22,6.59,12.7v0.38c0,4.14-0.86,7.51-2.58,10.12c-1.72,2.61-4.3,4.55-7.73,5.82
			C1509.55,874.13,1513.6,876,1516.33,878.64 M1486.21,866.89c1.49-0.16,2.77-0.72,3.82-1.67c1.05-0.95,1.58-2.54,1.58-4.77
			c0-2.04-0.51-3.5-1.53-4.39c-1.02-0.89-2.32-1.45-3.91-1.67c-1.59-0.22-3.91-0.33-6.97-0.33h-0.09h-27.21v12.98
			c6.55,0,10.88,0.03,12.98,0.09h4.58h9.74C1482.38,867.13,1484.72,867.05,1486.21,866.89 M1490.37,893.82
			c1.78-0.22,3.21-0.86,4.3-1.91c1.08-1.05,1.62-2.72,1.62-5.01c0-2.23-0.54-3.83-1.62-4.82c-1.08-0.99-2.52-1.59-4.3-1.81
			c-1.78-0.22-4.46-0.33-8.02-0.33h-0.09h-30.36v14.13c8.97,0,15.35,0.02,19.14,0.05c3.79,0.03,6.38,0.05,7.78,0.05h3.53
			C1485.91,894.15,1488.58,894.04,1490.37,893.82"/>
		<path class="st0" d="M1527.34,910.09h-0.03c-3.79,0-6.87-3.07-6.87-6.87v-0.03c0-3.79,3.07-6.87,6.87-6.87h0.03
			c3.79,0,6.87,3.07,6.87,6.87v0.03C1534.2,907.02,1531.13,910.09,1527.34,910.09z"/>
	</g>
</g>
<g>
	<path class="st0" d="M1627.1,741.36h-128.48c-15.21,0-27.53-12.33-27.53-27.53V585.34c0-15.21,12.33-27.53,27.53-27.53h128.48
		c15.21,0,27.53,12.33,27.53,27.53v128.48C1654.63,729.03,1642.3,741.36,1627.1,741.36z"/>
	<g>
		<path d="M1597.17,653.45c2.74,2.64,4.11,6.41,4.11,11.31v0.38c0,7.19-2.98,12.27-8.93,15.23c-5.95,2.96-14.5,4.47-25.63,4.53
			h-0.19h-3.72h-52.12v-70.65h60.43c7.38,0.07,13.27,1.59,17.66,4.58c4.39,2.99,6.59,7.22,6.59,12.7v0.38
			c0,4.14-0.86,7.51-2.58,10.12c-1.72,2.61-4.3,4.55-7.73,5.82C1590.39,648.95,1594.43,650.81,1597.17,653.45 M1567.05,641.71
			c1.49-0.16,2.77-0.72,3.82-1.67c1.05-0.95,1.58-2.54,1.58-4.77c0-2.04-0.51-3.5-1.53-4.39c-1.02-0.89-2.32-1.45-3.91-1.67
			c-1.59-0.22-3.91-0.33-6.97-0.33h-0.09h-27.21v12.98c6.55,0,10.88,0.03,12.98,0.09h4.58h9.74
			C1563.21,641.95,1565.55,641.87,1567.05,641.71 M1571.2,668.63c1.78-0.22,3.21-0.86,4.3-1.91c1.08-1.05,1.62-2.72,1.62-5.01
			c0-2.23-0.54-3.83-1.62-4.82c-1.08-0.99-2.52-1.59-4.3-1.81c-1.78-0.22-4.46-0.33-8.02-0.33h-0.09h-30.36v14.13
			c8.97,0,15.35,0.02,19.14,0.05c3.79,0.03,6.38,0.05,7.78,0.05h3.53C1566.74,668.96,1569.42,668.85,1571.2,668.63"/>
		<path d="M1608.17,684.91h-0.03c-3.79,0-6.87-3.07-6.87-6.87v-0.03c0-3.79,3.07-6.87,6.87-6.87h0.03c3.79,0,6.87,3.07,6.87,6.87
			v0.03C1615.04,681.83,1611.96,684.91,1608.17,684.91z"/>
	</g>
</g>
<g>
	<path d="M1546.26,516.17h-128.48c-15.21,0-27.53-12.33-27.53-27.53V360.16c0-15.21,12.33-27.53,27.53-27.53h128.48
		c15.21,0,27.53,12.33,27.53,27.53v128.48C1573.8,503.85,1561.47,516.17,1546.26,516.17z"/>
	<g>
		<path class="st0" d="M1516.33,428.27c2.74,2.64,4.11,6.41,4.11,11.31v0.38c0,7.19-2.98,12.27-8.93,15.23
			c-5.95,2.96-14.5,4.47-25.63,4.53h-0.19h-3.72h-52.12v-70.65h60.43c7.38,0.07,13.27,1.59,17.66,4.58
			c4.39,2.99,6.59,7.22,6.59,12.7v0.38c0,4.14-0.86,7.51-2.58,10.12c-1.72,2.61-4.3,4.55-7.73,5.82
			C1509.55,423.76,1513.6,425.63,1516.33,428.27 M1486.21,416.52c1.49-0.16,2.77-0.72,3.82-1.67c1.05-0.95,1.58-2.54,1.58-4.77
			c0-2.04-0.51-3.5-1.53-4.39c-1.02-0.89-2.32-1.45-3.91-1.67c-1.59-0.22-3.91-0.33-6.97-0.33h-0.09h-27.21v12.98
			c6.55,0,10.88,0.03,12.98,0.09h4.58h9.74C1482.38,416.76,1484.72,416.68,1486.21,416.52 M1490.37,443.45
			c1.78-0.22,3.21-0.86,4.3-1.91c1.08-1.05,1.62-2.72,1.62-5.01c0-2.23-0.54-3.83-1.62-4.82c-1.08-0.99-2.52-1.59-4.3-1.81
			c-1.78-0.22-4.46-0.33-8.02-0.33h-0.09h-30.36v14.13c8.97,0,15.35,0.02,19.14,0.05c3.79,0.03,6.38,0.05,7.78,0.05h3.53
			C1485.91,443.78,1488.58,443.67,1490.37,443.45"/>
		<path class="st0" d="M1527.34,459.72h-0.03c-3.79,0-6.87-3.07-6.87-6.87v-0.03c0-3.79,3.07-6.87,6.87-6.87h0.03
			c3.79,0,6.87,3.07,6.87,6.87v0.03C1534.2,456.65,1531.13,459.72,1527.34,459.72z"/>
	</g>
</g>
<g>
	<path class="st0" d="M1403.69,290.99h-128.48c-15.21,0-27.53-12.33-27.53-27.53V134.97c0-15.21,12.33-27.53,27.53-27.53h128.48
		c15.21,0,27.53,12.33,27.53,27.53v128.48C1431.22,278.66,1418.9,290.99,1403.69,290.99z"/>
	<g>
		<path d="M1373.76,203.08c2.74,2.64,4.1,6.41,4.1,11.31v0.38c0,7.19-2.98,12.27-8.93,15.23c-5.95,2.96-14.5,4.47-25.63,4.53h-0.19
			h-3.72h-52.12v-70.65h60.43c7.38,0.07,13.27,1.59,17.66,4.58c4.39,2.99,6.59,7.22,6.59,12.7v0.38c0,4.14-0.86,7.51-2.58,10.12
			c-1.72,2.61-4.3,4.55-7.73,5.82C1366.98,198.58,1371.02,200.44,1373.76,203.08 M1343.64,191.34c1.49-0.16,2.77-0.72,3.82-1.67
			c1.05-0.95,1.58-2.54,1.58-4.77c0-2.04-0.51-3.5-1.53-4.39c-1.02-0.89-2.32-1.45-3.91-1.67c-1.59-0.22-3.91-0.33-6.97-0.33h-0.09
			h-27.21v12.98c6.55,0,10.88,0.03,12.98,0.09h4.58h9.74C1339.8,191.58,1342.14,191.5,1343.64,191.34 M1347.79,218.26
			c1.78-0.22,3.21-0.86,4.3-1.91c1.08-1.05,1.62-2.72,1.62-5.01c0-2.23-0.54-3.83-1.62-4.82c-1.08-0.99-2.52-1.59-4.3-1.81
			c-1.78-0.22-4.46-0.33-8.02-0.33h-0.09h-30.36v14.13c8.97,0,15.35,0.02,19.14,0.05c3.79,0.03,6.38,0.05,7.78,0.05h3.53
			C1343.34,218.59,1346.01,218.48,1347.79,218.26"/>
		<path d="M1384.76,234.54h-0.03c-3.79,0-6.87-3.07-6.87-6.87v-0.03c0-3.79,3.07-6.87,6.87-6.87h0.03c3.79,0,6.87,3.07,6.87,6.87
			v0.03C1391.63,231.46,1388.56,234.54,1384.76,234.54z"/>
	</g>
</g>
<g>
	<path d="M1322.86,966.54h-128.48c-15.21,0-27.53-12.33-27.53-27.53V810.53c0-15.21,12.33-27.53,27.53-27.53h128.48
		c15.21,0,27.53,12.33,27.53,27.53v128.48C1350.39,954.22,1338.06,966.54,1322.86,966.54z"/>
	<g>
		<path class="st0" d="M1292.93,878.64c2.74,2.64,4.11,6.41,4.11,11.31v0.38c0,7.19-2.98,12.27-8.93,15.23
			c-5.95,2.96-14.5,4.47-25.63,4.53h-0.19h-3.72h-52.12v-70.65h60.43c7.38,0.07,13.27,1.59,17.66,4.58
			c4.39,2.99,6.59,7.22,6.59,12.7v0.38c0,4.14-0.86,7.51-2.58,10.12c-1.72,2.61-4.3,4.55-7.73,5.82
			C1286.15,874.13,1290.19,876,1292.93,878.64 M1262.81,866.89c1.49-0.16,2.77-0.72,3.82-1.67c1.05-0.95,1.58-2.54,1.58-4.77
			c0-2.04-0.51-3.5-1.53-4.39c-1.02-0.89-2.32-1.45-3.91-1.67c-1.59-0.22-3.91-0.33-6.97-0.33h-0.09h-27.21v12.98
			c6.55,0,10.88,0.03,12.98,0.09h4.58h9.74C1258.97,867.13,1261.31,867.05,1262.81,866.89 M1266.96,893.82
			c1.78-0.22,3.21-0.86,4.3-1.91c1.08-1.05,1.62-2.72,1.62-5.01c0-2.23-0.54-3.83-1.62-4.82c-1.08-0.99-2.52-1.59-4.3-1.81
			c-1.78-0.22-4.46-0.33-8.02-0.33h-0.09h-30.36v14.13c8.97,0,15.35,0.02,19.14,0.05c3.79,0.03,6.38,0.05,7.78,0.05h3.53
			C1262.5,894.15,1265.18,894.04,1266.96,893.82"/>
		<path class="st0" d="M1303.93,910.09h-0.03c-3.79,0-6.87-3.07-6.87-6.87v-0.03c0-3.79,3.07-6.87,6.87-6.87h0.03
			c3.79,0,6.87,3.07,6.87,6.87v0.03C1310.8,907.02,1307.72,910.09,1303.93,910.09z"/>
	</g>
</g>
<g>
	<path class="st0" d="M1403.69,741.36h-128.48c-15.21,0-27.53-12.33-27.53-27.53V585.34c0-15.21,12.33-27.53,27.53-27.53h128.48
		c15.21,0,27.53,12.33,27.53,27.53v128.48C1431.22,729.03,1418.9,741.36,1403.69,741.36z"/>
	<g>
		<path d="M1373.76,653.45c2.74,2.64,4.1,6.41,4.1,11.31v0.38c0,7.19-2.98,12.27-8.93,15.23c-5.95,2.96-14.5,4.47-25.63,4.53h-0.19
			h-3.72h-52.12v-70.65h60.43c7.38,0.07,13.27,1.59,17.66,4.58c4.39,2.99,6.59,7.22,6.59,12.7v0.38c0,4.14-0.86,7.51-2.58,10.12
			c-1.72,2.61-4.3,4.55-7.73,5.82C1366.98,648.95,1371.02,650.81,1373.76,653.45 M1343.64,641.71c1.49-0.16,2.77-0.72,3.82-1.67
			c1.05-0.95,1.58-2.54,1.58-4.77c0-2.04-0.51-3.5-1.53-4.39c-1.02-0.89-2.32-1.45-3.91-1.67c-1.59-0.22-3.91-0.33-6.97-0.33h-0.09
			h-27.21v12.98c6.55,0,10.88,0.03,12.98,0.09h4.58h9.74C1339.8,641.95,1342.14,641.87,1343.64,641.71 M1347.79,668.63
			c1.78-0.22,3.21-0.86,4.3-1.91c1.08-1.05,1.62-2.72,1.62-5.01c0-2.23-0.54-3.83-1.62-4.82c-1.08-0.99-2.52-1.59-4.3-1.81
			c-1.78-0.22-4.46-0.33-8.02-0.33h-0.09h-30.36v14.13c8.97,0,15.35,0.02,19.14,0.05c3.79,0.03,6.38,0.05,7.78,0.05h3.53
			C1343.34,668.96,1346.01,668.85,1347.79,668.63"/>
		<path d="M1384.76,684.91h-0.03c-3.79,0-6.87-3.07-6.87-6.87v-0.03c0-3.79,3.07-6.87,6.87-6.87h0.03c3.79,0,6.87,3.07,6.87,6.87
			v0.03C1391.63,681.83,1388.56,684.91,1384.76,684.91z"/>
	</g>
</g>
<g>
	<path d="M1322.86,516.17h-128.48c-15.21,0-27.53-12.33-27.53-27.53V360.16c0-15.21,12.33-27.53,27.53-27.53h128.48
		c15.21,0,27.53,12.33,27.53,27.53v128.48C1350.39,503.85,1338.06,516.17,1322.86,516.17z"/>
	<g>
		<path class="st0" d="M1292.93,428.27c2.74,2.64,4.11,6.41,4.11,11.31v0.38c0,7.19-2.98,12.27-8.93,15.23
			c-5.95,2.96-14.5,4.47-25.63,4.53h-0.19h-3.72h-52.12v-70.65h60.43c7.38,0.07,13.27,1.59,17.66,4.58
			c4.39,2.99,6.59,7.22,6.59,12.7v0.38c0,4.14-0.86,7.51-2.58,10.12c-1.72,2.61-4.3,4.55-7.73,5.82
			C1286.15,423.76,1290.19,425.63,1292.93,428.27 M1262.81,416.52c1.49-0.16,2.77-0.72,3.82-1.67c1.05-0.95,1.58-2.54,1.58-4.77
			c0-2.04-0.51-3.5-1.53-4.39c-1.02-0.89-2.32-1.45-3.91-1.67c-1.59-0.22-3.91-0.33-6.97-0.33h-0.09h-27.21v12.98
			c6.55,0,10.88,0.03,12.98,0.09h4.58h9.74C1258.97,416.76,1261.31,416.68,1262.81,416.52 M1266.96,443.45
			c1.78-0.22,3.21-0.86,4.3-1.91c1.08-1.05,1.62-2.72,1.62-5.01c0-2.23-0.54-3.83-1.62-4.82c-1.08-0.99-2.52-1.59-4.3-1.81
			c-1.78-0.22-4.46-0.33-8.02-0.33h-0.09h-30.36v14.13c8.97,0,15.35,0.02,19.14,0.05c3.79,0.03,6.38,0.05,7.78,0.05h3.53
			C1262.5,443.78,1265.18,443.67,1266.96,443.45"/>
		<path class="st0" d="M1303.93,459.72h-0.03c-3.79,0-6.87-3.07-6.87-6.87v-0.03c0-3.79,3.07-6.87,6.87-6.87h0.03
			c3.79,0,6.87,3.07,6.87,6.87v0.03C1310.8,456.65,1307.72,459.72,1303.93,459.72z"/>
	</g>
</g>
<g>
	<path class="st0" d="M1177.7,290.99h-128.48c-15.21,0-27.53-12.33-27.53-27.53V134.97c0-15.21,12.33-27.53,27.53-27.53h128.48
		c15.21,0,27.53,12.33,27.53,27.53v128.48C1205.24,278.66,1192.91,290.99,1177.7,290.99z"/>
	<g>
		<path d="M1147.77,203.08c2.74,2.64,4.11,6.41,4.11,11.31v0.38c0,7.19-2.98,12.27-8.93,15.23c-5.95,2.96-14.5,4.47-25.63,4.53
			h-0.19h-3.72h-52.12v-70.65h60.43c7.38,0.07,13.27,1.59,17.66,4.58c4.39,2.99,6.59,7.22,6.59,12.7v0.38
			c0,4.14-0.86,7.51-2.58,10.12c-1.72,2.61-4.3,4.55-7.73,5.82C1141,198.58,1145.04,200.44,1147.77,203.08 M1117.65,191.34
			c1.49-0.16,2.77-0.72,3.82-1.67c1.05-0.95,1.58-2.54,1.58-4.77c0-2.04-0.51-3.5-1.53-4.39c-1.02-0.89-2.32-1.45-3.91-1.67
			c-1.59-0.22-3.91-0.33-6.97-0.33h-0.09h-27.21v12.98c6.55,0,10.88,0.03,12.98,0.09h4.58h9.74
			C1113.82,191.58,1116.16,191.5,1117.65,191.34 M1121.81,218.26c1.78-0.22,3.21-0.86,4.3-1.91c1.08-1.05,1.62-2.72,1.62-5.01
			c0-2.23-0.54-3.83-1.62-4.82c-1.08-0.99-2.52-1.59-4.3-1.81c-1.78-0.22-4.46-0.33-8.02-0.33h-0.09h-30.36v14.13
			c8.97,0,15.35,0.02,19.14,0.05c3.79,0.03,6.38,0.05,7.78,0.05h3.53C1117.35,218.59,1120.02,218.48,1121.81,218.26"/>
		<path d="M1158.78,234.54h-0.03c-3.79,0-6.87-3.07-6.87-6.87v-0.03c0-3.79,3.07-6.87,6.87-6.87h0.03c3.79,0,6.87,3.07,6.87,6.87
			v0.03C1165.64,231.46,1162.57,234.54,1158.78,234.54z"/>
	</g>
</g>
<g>
	<path d="M1096.87,966.54H968.39c-15.21,0-27.53-12.33-27.53-27.53V810.53c0-15.21,12.33-27.53,27.53-27.53h128.48
		c15.21,0,27.53,12.33,27.53,27.53v128.48C1124.4,954.22,1112.08,966.54,1096.87,966.54z"/>
	<g>
		<path class="st0" d="M1066.94,878.64c2.74,2.64,4.1,6.41,4.1,11.31v0.38c0,7.19-2.98,12.27-8.93,15.23
			c-5.95,2.96-14.5,4.47-25.63,4.53h-0.19h-3.72h-52.12v-70.65h60.43c7.38,0.07,13.27,1.59,17.66,4.58
			c4.39,2.99,6.59,7.22,6.59,12.7v0.38c0,4.14-0.86,7.51-2.58,10.12c-1.72,2.61-4.3,4.55-7.73,5.82
			C1060.16,874.13,1064.2,876,1066.94,878.64 M1036.82,866.89c1.49-0.16,2.77-0.72,3.82-1.67c1.05-0.95,1.58-2.54,1.58-4.77
			c0-2.04-0.51-3.5-1.53-4.39c-1.02-0.89-2.32-1.45-3.91-1.67c-1.59-0.22-3.91-0.33-6.97-0.33h-0.09h-27.21v12.98
			c6.55,0,10.88,0.03,12.98,0.09h4.58h9.74C1032.99,867.13,1035.32,867.05,1036.82,866.89 M1040.97,893.82
			c1.78-0.22,3.21-0.86,4.3-1.91c1.08-1.05,1.62-2.72,1.62-5.01c0-2.23-0.54-3.83-1.62-4.82c-1.08-0.99-2.52-1.59-4.3-1.81
			c-1.78-0.22-4.46-0.33-8.02-0.33h-0.09h-30.36v14.13c8.97,0,15.35,0.02,19.14,0.05c3.79,0.03,6.38,0.05,7.78,0.05h3.53
			C1036.52,894.15,1039.19,894.04,1040.97,893.82"/>
		<path class="st0" d="M1077.94,910.09h-0.03c-3.79,0-6.87-3.07-6.87-6.87v-0.03c0-3.79,3.07-6.87,6.87-6.87h0.03
			c3.79,0,6.87,3.07,6.87,6.87v0.03C1084.81,907.02,1081.74,910.09,1077.94,910.09z"/>
	</g>
</g>
<g>
	<path class="st0" d="M1177.7,741.36h-128.48c-15.21,0-27.53-12.33-27.53-27.53V585.34c0-15.21,12.33-27.53,27.53-27.53h128.48
		c15.21,0,27.53,12.33,27.53,27.53v128.48C1205.24,729.03,1192.91,741.36,1177.7,741.36z"/>
	<g>
		<path d="M1147.77,653.45c2.74,2.64,4.11,6.41,4.11,11.31v0.38c0,7.19-2.98,12.27-8.93,15.23c-5.95,2.96-14.5,4.47-25.63,4.53
			h-0.19h-3.72h-52.12v-70.65h60.43c7.38,0.07,13.27,1.59,17.66,4.58c4.39,2.99,6.59,7.22,6.59,12.7v0.38
			c0,4.14-0.86,7.51-2.58,10.12c-1.72,2.61-4.3,4.55-7.73,5.82C1141,648.95,1145.04,650.81,1147.77,653.45 M1117.65,641.71
			c1.49-0.16,2.77-0.72,3.82-1.67c1.05-0.95,1.58-2.54,1.58-4.77c0-2.04-0.51-3.5-1.53-4.39c-1.02-0.89-2.32-1.45-3.91-1.67
			c-1.59-0.22-3.91-0.33-6.97-0.33h-0.09h-27.21v12.98c6.55,0,10.88,0.03,12.98,0.09h4.58h9.74
			C1113.82,641.95,1116.16,641.87,1117.65,641.71 M1121.81,668.63c1.78-0.22,3.21-0.86,4.3-1.91c1.08-1.05,1.62-2.72,1.62-5.01
			c0-2.23-0.54-3.83-1.62-4.82c-1.08-0.99-2.52-1.59-4.3-1.81c-1.78-0.22-4.46-0.33-8.02-0.33h-0.09h-30.36v14.13
			c8.97,0,15.35,0.02,19.14,0.05c3.79,0.03,6.38,0.05,7.78,0.05h3.53C1117.35,668.96,1120.02,668.85,1121.81,668.63"/>
		<path d="M1158.78,684.91h-0.03c-3.79,0-6.87-3.07-6.87-6.87v-0.03c0-3.79,3.07-6.87,6.87-6.87h0.03c3.79,0,6.87,3.07,6.87,6.87
			v0.03C1165.64,681.83,1162.57,684.91,1158.78,684.91z"/>
	</g>
</g>
<g>
	<path d="M1096.87,516.17H968.39c-15.21,0-27.53-12.33-27.53-27.53V360.16c0-15.21,12.33-27.53,27.53-27.53h128.48
		c15.21,0,27.53,12.33,27.53,27.53v128.48C1124.4,503.85,1112.08,516.17,1096.87,516.17z"/>
	<g>
		<path class="st0" d="M1066.94,428.27c2.74,2.64,4.1,6.41,4.1,11.31v0.38c0,7.19-2.98,12.27-8.93,15.23
			c-5.95,2.96-14.5,4.47-25.63,4.53h-0.19h-3.72h-52.12v-70.65h60.43c7.38,0.07,13.27,1.59,17.66,4.58
			c4.39,2.99,6.59,7.22,6.59,12.7v0.38c0,4.14-0.86,7.51-2.58,10.12c-1.72,2.61-4.3,4.55-7.73,5.82
			C1060.16,423.76,1064.2,425.63,1066.94,428.27 M1036.82,416.52c1.49-0.16,2.77-0.72,3.82-1.67c1.05-0.95,1.58-2.54,1.58-4.77
			c0-2.04-0.51-3.5-1.53-4.39c-1.02-0.89-2.32-1.45-3.91-1.67c-1.59-0.22-3.91-0.33-6.97-0.33h-0.09h-27.21v12.98
			c6.55,0,10.88,0.03,12.98,0.09h4.58h9.74C1032.99,416.76,1035.32,416.68,1036.82,416.52 M1040.97,443.45
			c1.78-0.22,3.21-0.86,4.3-1.91c1.08-1.05,1.62-2.72,1.62-5.01c0-2.23-0.54-3.83-1.62-4.82c-1.08-0.99-2.52-1.59-4.3-1.81
			c-1.78-0.22-4.46-0.33-8.02-0.33h-0.09h-30.36v14.13c8.97,0,15.35,0.02,19.14,0.05c3.79,0.03,6.38,0.05,7.78,0.05h3.53
			C1036.52,443.78,1039.19,443.67,1040.97,443.45"/>
		<path class="st0" d="M1077.94,459.72h-0.03c-3.79,0-6.87-3.07-6.87-6.87v-0.03c0-3.79,3.07-6.87,6.87-6.87h0.03
			c3.79,0,6.87,3.07,6.87,6.87v0.03C1084.81,456.65,1081.74,459.72,1077.94,459.72z"/>
	</g>
</g>
<g>
	<path class="st0" d="M951.72,289.19H823.24c-15.21,0-27.53-12.33-27.53-27.53V133.17c0-15.21,12.33-27.53,27.53-27.53h128.48
		c15.21,0,27.53,12.33,27.53,27.53v128.48C979.25,276.86,966.93,289.19,951.72,289.19z"/>
	<g>
		<path d="M921.79,201.28c2.74,2.64,4.11,6.41,4.11,11.31v0.38c0,7.19-2.98,12.27-8.93,15.23c-5.95,2.96-14.5,4.47-25.63,4.53h-0.19
			h-3.72H835.3v-70.65h60.43c7.38,0.07,13.27,1.59,17.66,4.58c4.39,2.99,6.59,7.22,6.59,12.7v0.38c0,4.14-0.86,7.51-2.58,10.12
			c-1.72,2.61-4.3,4.55-7.73,5.82C915.01,196.78,919.05,198.64,921.79,201.28 M891.67,189.54c1.49-0.16,2.77-0.72,3.82-1.67
			c1.05-0.95,1.58-2.54,1.58-4.77c0-2.04-0.51-3.5-1.53-4.39c-1.02-0.89-2.32-1.45-3.91-1.67c-1.59-0.22-3.91-0.33-6.97-0.33h-0.09
			h-27.21v12.98c6.55,0,10.88,0.03,12.98,0.09h4.58h9.74C887.83,189.78,890.17,189.7,891.67,189.54 M895.82,216.46
			c1.78-0.22,3.21-0.86,4.3-1.91c1.08-1.05,1.62-2.72,1.62-5.01c0-2.23-0.54-3.83-1.62-4.82c-1.08-0.99-2.52-1.59-4.3-1.81
			c-1.78-0.22-4.46-0.33-8.02-0.33h-0.09h-30.36v14.13c8.97,0,15.35,0.02,19.14,0.05c3.79,0.03,6.38,0.05,7.78,0.05h3.53
			C891.37,216.79,894.04,216.68,895.82,216.46"/>
		<path d="M932.79,232.74h-0.03c-3.79,0-6.87-3.07-6.87-6.87v-0.03c0-3.79,3.07-6.87,6.87-6.87h0.03c3.79,0,6.87,3.07,6.87,6.87
			v0.03C939.66,229.66,936.59,232.74,932.79,232.74z"/>
	</g>
</g>
<g>
	<path d="M870.89,964.74H742.4c-15.21,0-27.53-12.33-27.53-27.53V808.73c0-15.21,12.33-27.53,27.53-27.53h128.48
		c15.21,0,27.53,12.33,27.53,27.53v128.48C898.42,952.42,886.09,964.74,870.89,964.74z"/>
	<g>
		<path class="st0" d="M840.96,876.84c2.74,2.64,4.11,6.41,4.11,11.31v0.38c0,7.19-2.98,12.27-8.93,15.23
			c-5.95,2.96-14.5,4.47-25.63,4.53h-0.19h-3.72h-52.12v-70.65h60.43c7.38,0.07,13.27,1.59,17.66,4.58
			c4.39,2.99,6.59,7.22,6.59,12.7v0.38c0,4.14-0.86,7.51-2.58,10.12c-1.72,2.61-4.3,4.55-7.73,5.82
			C834.18,872.33,838.22,874.2,840.96,876.84 M810.84,865.09c1.49-0.16,2.77-0.72,3.82-1.67c1.05-0.95,1.58-2.54,1.58-4.77
			c0-2.04-0.51-3.5-1.53-4.39c-1.02-0.89-2.32-1.45-3.91-1.67c-1.59-0.22-3.91-0.33-6.97-0.33h-0.09h-27.21v12.98
			c6.55,0,10.88,0.03,12.98,0.09h4.58h9.74C807,865.33,809.34,865.25,810.84,865.09 M814.99,892.02c1.78-0.22,3.21-0.86,4.3-1.91
			c1.08-1.05,1.62-2.72,1.62-5.01c0-2.23-0.54-3.83-1.62-4.82c-1.08-0.99-2.52-1.59-4.3-1.81c-1.78-0.22-4.46-0.33-8.02-0.33h-0.09
			h-30.36v14.13c8.97,0,15.35,0.02,19.14,0.05c3.79,0.03,6.38,0.05,7.78,0.05h3.53C810.53,892.35,813.21,892.24,814.99,892.02"/>
		<path class="st0" d="M851.96,908.29h-0.03c-3.79,0-6.87-3.07-6.87-6.87v-0.03c0-3.79,3.07-6.87,6.87-6.87h0.03
			c3.79,0,6.87,3.07,6.87,6.87v0.03C858.83,905.22,855.75,908.29,851.96,908.29z"/>
	</g>
</g>
<g>
	<path class="st0" d="M951.72,739.56H823.24c-15.21,0-27.53-12.33-27.53-27.53V583.54c0-15.21,12.33-27.53,27.53-27.53h128.48
		c15.21,0,27.53,12.33,27.53,27.53v128.48C979.25,727.23,966.93,739.56,951.72,739.56z"/>
	<g>
		<path d="M921.79,651.65c2.74,2.64,4.11,6.41,4.11,11.31v0.38c0,7.19-2.98,12.27-8.93,15.23c-5.95,2.96-14.5,4.47-25.63,4.53h-0.19
			h-3.72H835.3v-70.65h60.43c7.38,0.07,13.27,1.59,17.66,4.58c4.39,2.99,6.59,7.22,6.59,12.7v0.38c0,4.14-0.86,7.51-2.58,10.12
			c-1.72,2.61-4.3,4.55-7.73,5.82C915.01,647.15,919.05,649.01,921.79,651.65 M891.67,639.91c1.49-0.16,2.77-0.72,3.82-1.67
			c1.05-0.95,1.58-2.54,1.58-4.77c0-2.04-0.51-3.5-1.53-4.39c-1.02-0.89-2.32-1.45-3.91-1.67c-1.59-0.22-3.91-0.33-6.97-0.33h-0.09
			h-27.21v12.98c6.55,0,10.88,0.03,12.98,0.09h4.58h9.74C887.83,640.15,890.17,640.07,891.67,639.91 M895.82,666.83
			c1.78-0.22,3.21-0.86,4.3-1.91c1.08-1.05,1.62-2.72,1.62-5.01c0-2.23-0.54-3.83-1.62-4.82c-1.08-0.99-2.52-1.59-4.3-1.81
			c-1.78-0.22-4.46-0.33-8.02-0.33h-0.09h-30.36v14.13c8.97,0,15.35,0.02,19.14,0.05c3.79,0.03,6.38,0.05,7.78,0.05h3.53
			C891.37,667.16,894.04,667.05,895.82,666.83"/>
		<path d="M932.79,683.11h-0.03c-3.79,0-6.87-3.07-6.87-6.87v-0.03c0-3.79,3.07-6.87,6.87-6.87h0.03c3.79,0,6.87,3.07,6.87,6.87
			v0.03C939.66,680.03,936.59,683.11,932.79,683.11z"/>
	</g>
</g>
<g>
	<path d="M870.89,514.37H742.4c-15.21,0-27.53-12.33-27.53-27.53V358.36c0-15.21,12.33-27.53,27.53-27.53h128.48
		c15.21,0,27.53,12.33,27.53,27.53v128.48C898.42,502.05,886.09,514.37,870.89,514.37z"/>
	<g>
		<path class="st0" d="M840.96,426.47c2.74,2.64,4.11,6.41,4.11,11.31v0.38c0,7.19-2.98,12.27-8.93,15.23
			c-5.95,2.96-14.5,4.47-25.63,4.53h-0.19h-3.72h-52.12v-70.65h60.43c7.38,0.07,13.27,1.59,17.66,4.58
			c4.39,2.99,6.59,7.22,6.59,12.7v0.38c0,4.14-0.86,7.51-2.58,10.12c-1.72,2.61-4.3,4.55-7.73,5.82
			C834.18,421.96,838.22,423.83,840.96,426.47 M810.84,414.72c1.49-0.16,2.77-0.72,3.82-1.67c1.05-0.95,1.58-2.54,1.58-4.77
			c0-2.04-0.51-3.5-1.53-4.39c-1.02-0.89-2.32-1.45-3.91-1.67c-1.59-0.22-3.91-0.33-6.97-0.33h-0.09h-27.21v12.98
			c6.55,0,10.88,0.03,12.98,0.09h4.58h9.74C807,414.96,809.34,414.88,810.84,414.72 M814.99,441.65c1.78-0.22,3.21-0.86,4.3-1.91
			c1.08-1.05,1.62-2.72,1.62-5.01c0-2.23-0.54-3.83-1.62-4.82c-1.08-0.99-2.52-1.59-4.3-1.81c-1.78-0.22-4.46-0.33-8.02-0.33h-0.09
			h-30.36v14.13c8.97,0,15.35,0.02,19.14,0.05c3.79,0.03,6.38,0.05,7.78,0.05h3.53C810.53,441.98,813.21,441.87,814.99,441.65"/>
		<path class="st0" d="M851.96,457.92h-0.03c-3.79,0-6.87-3.07-6.87-6.87v-0.03c0-3.79,3.07-6.87,6.87-6.87h0.03
			c3.79,0,6.87,3.07,6.87,6.87v0.03C858.83,454.85,855.75,457.92,851.96,457.92z"/>
	</g>
</g>
<g>
	<path class="st0" d="M725.73,289.19H597.25c-15.21,0-27.53-12.33-27.53-27.53V133.17c0-15.21,12.33-27.53,27.53-27.53h128.48
		c15.21,0,27.53,12.33,27.53,27.53v128.48C753.27,276.86,740.94,289.19,725.73,289.19z"/>
	<g>
		<path d="M695.8,201.28c2.74,2.64,4.11,6.41,4.11,11.31v0.38c0,7.19-2.98,12.27-8.93,15.23c-5.95,2.96-14.5,4.47-25.63,4.53h-0.19
			h-3.72h-52.12v-70.65h60.43c7.38,0.07,13.27,1.59,17.66,4.58c4.39,2.99,6.59,7.22,6.59,12.7v0.38c0,4.14-0.86,7.51-2.58,10.12
			c-1.72,2.61-4.3,4.55-7.73,5.82C689.03,196.78,693.07,198.64,695.8,201.28 M665.68,189.54c1.49-0.16,2.77-0.72,3.82-1.67
			c1.05-0.95,1.58-2.54,1.58-4.77c0-2.04-0.51-3.5-1.53-4.39c-1.02-0.89-2.32-1.45-3.91-1.67c-1.59-0.22-3.91-0.33-6.97-0.33h-0.09
			h-27.21v12.98c6.55,0,10.88,0.03,12.98,0.09h4.58h9.74C661.85,189.78,664.19,189.7,665.68,189.54 M669.84,216.46
			c1.78-0.22,3.21-0.86,4.3-1.91c1.08-1.05,1.62-2.72,1.62-5.01c0-2.23-0.54-3.83-1.62-4.82c-1.08-0.99-2.52-1.59-4.3-1.81
			c-1.78-0.22-4.46-0.33-8.02-0.33h-0.09h-30.36v14.13c8.97,0,15.35,0.02,19.14,0.05c3.79,0.03,6.38,0.05,7.78,0.05h3.53
			C665.38,216.79,668.05,216.68,669.84,216.46"/>
		<path d="M706.81,232.74h-0.03c-3.79,0-6.87-3.07-6.87-6.87v-0.03c0-3.79,3.07-6.87,6.87-6.87h0.03c3.79,0,6.87,3.07,6.87,6.87
			v0.03C713.67,229.66,710.6,232.74,706.81,232.74z"/>
	</g>
</g>
<g>
	<path d="M644.9,964.74H516.42c-15.21,0-27.53-12.33-27.53-27.53V808.73c0-15.21,12.33-27.53,27.53-27.53H644.9
		c15.21,0,27.53,12.33,27.53,27.53v128.48C672.43,952.42,660.11,964.74,644.9,964.74z"/>
	<g>
		<path class="st0" d="M614.97,876.84c2.74,2.64,4.11,6.41,4.11,11.31v0.38c0,7.19-2.98,12.27-8.93,15.23
			c-5.95,2.96-14.5,4.47-25.63,4.53h-0.19h-3.72h-52.12v-70.65h60.43c7.38,0.07,13.27,1.59,17.66,4.58
			c4.39,2.99,6.59,7.22,6.59,12.7v0.38c0,4.14-0.86,7.51-2.58,10.12c-1.72,2.61-4.3,4.55-7.73,5.82
			C608.19,872.33,612.23,874.2,614.97,876.84 M584.85,865.09c1.49-0.16,2.77-0.72,3.82-1.67c1.05-0.95,1.58-2.54,1.58-4.77
			c0-2.04-0.51-3.5-1.53-4.39c-1.02-0.89-2.32-1.45-3.91-1.67c-1.59-0.22-3.91-0.33-6.97-0.33h-0.09h-27.21v12.98
			c6.55,0,10.88,0.03,12.98,0.09h4.58h9.74C581.02,865.33,583.35,865.25,584.85,865.09 M589,892.02c1.78-0.22,3.21-0.86,4.3-1.91
			c1.08-1.05,1.62-2.72,1.62-5.01c0-2.23-0.54-3.83-1.62-4.82c-1.08-0.99-2.52-1.59-4.3-1.81c-1.78-0.22-4.46-0.33-8.02-0.33h-0.09
			h-30.36v14.13c8.97,0,15.35,0.02,19.14,0.05c3.79,0.03,6.38,0.05,7.78,0.05h3.53C584.55,892.35,587.22,892.24,589,892.02"/>
		<path class="st0" d="M625.97,908.29h-0.03c-3.79,0-6.87-3.07-6.87-6.87v-0.03c0-3.79,3.07-6.87,6.87-6.87h0.03
			c3.79,0,6.87,3.07,6.87,6.87v0.03C632.84,905.22,629.77,908.29,625.97,908.29z"/>
	</g>
</g>
<g>
	<path class="st0" d="M725.73,739.56H597.25c-15.21,0-27.53-12.33-27.53-27.53V583.54c0-15.21,12.33-27.53,27.53-27.53h128.48
		c15.21,0,27.53,12.33,27.53,27.53v128.48C753.27,727.23,740.94,739.56,725.73,739.56z"/>
	<g>
		<path d="M695.8,651.65c2.74,2.64,4.11,6.41,4.11,11.31v0.38c0,7.19-2.98,12.27-8.93,15.23c-5.95,2.96-14.5,4.47-25.63,4.53h-0.19
			h-3.72h-52.12v-70.65h60.43c7.38,0.07,13.27,1.59,17.66,4.58c4.39,2.99,6.59,7.22,6.59,12.7v0.38c0,4.14-0.86,7.51-2.58,10.12
			c-1.72,2.61-4.3,4.55-7.73,5.82C689.03,647.15,693.07,649.01,695.8,651.65 M665.68,639.91c1.49-0.16,2.77-0.72,3.82-1.67
			c1.05-0.95,1.58-2.54,1.58-4.77c0-2.04-0.51-3.5-1.53-4.39c-1.02-0.89-2.32-1.45-3.91-1.67c-1.59-0.22-3.91-0.33-6.97-0.33h-0.09
			h-27.21v12.98c6.55,0,10.88,0.03,12.98,0.09h4.58h9.74C661.85,640.15,664.19,640.07,665.68,639.91 M669.84,666.83
			c1.78-0.22,3.21-0.86,4.3-1.91c1.08-1.05,1.62-2.72,1.62-5.01c0-2.23-0.54-3.83-1.62-4.82c-1.08-0.99-2.52-1.59-4.3-1.81
			c-1.78-0.22-4.46-0.33-8.02-0.33h-0.09h-30.36v14.13c8.97,0,15.35,0.02,19.14,0.05c3.79,0.03,6.38,0.05,7.78,0.05h3.53
			C665.38,667.16,668.05,667.05,669.84,666.83"/>
		<path d="M706.81,683.11h-0.03c-3.79,0-6.87-3.07-6.87-6.87v-0.03c0-3.79,3.07-6.87,6.87-6.87h0.03c3.79,0,6.87,3.07,6.87,6.87
			v0.03C713.67,680.03,710.6,683.11,706.81,683.11z"/>
	</g>
</g>
<g>
	<path d="M644.9,514.37H516.42c-15.21,0-27.53-12.33-27.53-27.53V358.36c0-15.21,12.33-27.53,27.53-27.53H644.9
		c15.21,0,27.53,12.33,27.53,27.53v128.48C672.43,502.05,660.11,514.37,644.9,514.37z"/>
	<g>
		<path class="st0" d="M614.97,426.47c2.74,2.64,4.11,6.41,4.11,11.31v0.38c0,7.19-2.98,12.27-8.93,15.23
			c-5.95,2.96-14.5,4.47-25.63,4.53h-0.19h-3.72h-52.12v-70.65h60.43c7.38,0.07,13.27,1.59,17.66,4.58
			c4.39,2.99,6.59,7.22,6.59,12.7v0.38c0,4.14-0.86,7.51-2.58,10.12c-1.72,2.61-4.3,4.55-7.73,5.82
			C608.19,421.96,612.23,423.83,614.97,426.47 M584.85,414.72c1.49-0.16,2.77-0.72,3.82-1.67c1.05-0.95,1.58-2.54,1.58-4.77
			c0-2.04-0.51-3.5-1.53-4.39c-1.02-0.89-2.32-1.45-3.91-1.67c-1.59-0.22-3.91-0.33-6.97-0.33h-0.09h-27.21v12.98
			c6.55,0,10.88,0.03,12.98,0.09h4.58h9.74C581.02,414.96,583.35,414.88,584.85,414.72 M589,441.65c1.78-0.22,3.21-0.86,4.3-1.91
			c1.08-1.05,1.62-2.72,1.62-5.01c0-2.23-0.54-3.83-1.62-4.82c-1.08-0.99-2.52-1.59-4.3-1.81c-1.78-0.22-4.46-0.33-8.02-0.33h-0.09
			h-30.36v14.13c8.97,0,15.35,0.02,19.14,0.05c3.79,0.03,6.38,0.05,7.78,0.05h3.53C584.55,441.98,587.22,441.87,589,441.65"/>
		<path class="st0" d="M625.97,457.92h-0.03c-3.79,0-6.87-3.07-6.87-6.87v-0.03c0-3.79,3.07-6.87,6.87-6.87h0.03
			c3.79,0,6.87,3.07,6.87,6.87v0.03C632.84,454.85,629.77,457.92,625.97,457.92z"/>
	</g>
</g>
<g>
	<path class="st0" d="M502.33,289.19H373.84c-15.21,0-27.53-12.33-27.53-27.53V133.17c0-15.21,12.33-27.53,27.53-27.53h128.48
		c15.21,0,27.53,12.33,27.53,27.53v128.48C529.86,276.86,517.53,289.19,502.33,289.19z"/>
	<g>
		<path d="M472.4,201.28c2.74,2.64,4.11,6.41,4.11,11.31v0.38c0,7.19-2.98,12.27-8.93,15.23c-5.95,2.96-14.5,4.47-25.63,4.53h-0.19
			h-3.72H385.9v-70.65h60.43c7.38,0.07,13.27,1.59,17.66,4.58c4.39,2.99,6.59,7.22,6.59,12.7v0.38c0,4.14-0.86,7.51-2.58,10.12
			c-1.72,2.61-4.3,4.55-7.73,5.82C465.62,196.78,469.66,198.64,472.4,201.28 M442.28,189.54c1.49-0.16,2.77-0.72,3.82-1.67
			c1.05-0.95,1.58-2.54,1.58-4.77c0-2.04-0.51-3.5-1.53-4.39c-1.02-0.89-2.32-1.45-3.91-1.67c-1.59-0.22-3.91-0.33-6.97-0.33h-0.09
			h-27.21v12.98c6.55,0,10.88,0.03,12.98,0.09h4.58h9.74C438.44,189.78,440.78,189.7,442.28,189.54 M446.43,216.46
			c1.78-0.22,3.21-0.86,4.3-1.91c1.08-1.05,1.62-2.72,1.62-5.01c0-2.23-0.54-3.83-1.62-4.82c-1.08-0.99-2.52-1.59-4.3-1.81
			c-1.78-0.22-4.46-0.33-8.02-0.33h-0.09h-30.36v14.13c8.97,0,15.35,0.02,19.14,0.05c3.79,0.03,6.38,0.05,7.78,0.05h3.53
			C441.97,216.79,444.65,216.68,446.43,216.46"/>
		<path d="M483.4,232.74h-0.03c-3.79,0-6.87-3.07-6.87-6.87v-0.03c0-3.79,3.07-6.87,6.87-6.87h0.03c3.79,0,6.87,3.07,6.87,6.87v0.03
			C490.27,229.66,487.19,232.74,483.4,232.74z"/>
	</g>
</g>
<g>
	<path d="M421.49,964.74H293.01c-15.21,0-27.53-12.33-27.53-27.53V808.73c0-15.21,12.33-27.53,27.53-27.53h128.48
		c15.21,0,27.53,12.33,27.53,27.53v128.48C449.03,952.42,436.7,964.74,421.49,964.74z"/>
	<g>
		<path class="st0" d="M391.56,876.84c2.74,2.64,4.11,6.41,4.11,11.31v0.38c0,7.19-2.98,12.27-8.93,15.23
			c-5.95,2.96-14.5,4.47-25.63,4.53h-0.19h-3.72h-52.12v-70.65h60.43c7.38,0.07,13.27,1.59,17.66,4.58
			c4.39,2.99,6.59,7.22,6.59,12.7v0.38c0,4.14-0.86,7.51-2.58,10.12c-1.72,2.61-4.3,4.55-7.73,5.82
			C384.78,872.33,388.83,874.2,391.56,876.84 M361.44,865.09c1.49-0.16,2.77-0.72,3.82-1.67c1.05-0.95,1.58-2.54,1.58-4.77
			c0-2.04-0.51-3.5-1.53-4.39c-1.02-0.89-2.32-1.45-3.91-1.67c-1.59-0.22-3.91-0.33-6.97-0.33h-0.09h-27.21v12.98
			c6.55,0,10.88,0.03,12.98,0.09h4.58h9.74C357.61,865.33,359.95,865.25,361.44,865.09 M365.6,892.02c1.78-0.22,3.21-0.86,4.3-1.91
			c1.08-1.05,1.62-2.72,1.62-5.01c0-2.23-0.54-3.83-1.62-4.82c-1.08-0.99-2.52-1.59-4.3-1.81c-1.78-0.22-4.46-0.33-8.02-0.33h-0.09
			h-30.36v14.13c8.97,0,15.35,0.02,19.14,0.05c3.79,0.03,6.38,0.05,7.78,0.05h3.53C361.14,892.35,363.81,892.24,365.6,892.02"/>
		<path class="st0" d="M402.57,908.29h-0.03c-3.79,0-6.87-3.07-6.87-6.87v-0.03c0-3.79,3.07-6.87,6.87-6.87h0.03
			c3.79,0,6.87,3.07,6.87,6.87v0.03C409.43,905.22,406.36,908.29,402.57,908.29z"/>
	</g>
</g>
<g>
	<path class="st0" d="M502.33,739.56H373.84c-15.21,0-27.53-12.33-27.53-27.53V583.54c0-15.21,12.33-27.53,27.53-27.53h128.48
		c15.21,0,27.53,12.33,27.53,27.53v128.48C529.86,727.23,517.53,739.56,502.33,739.56z"/>
	<g>
		<path d="M472.4,651.65c2.74,2.64,4.11,6.41,4.11,11.31v0.38c0,7.19-2.98,12.27-8.93,15.23c-5.95,2.96-14.5,4.47-25.63,4.53h-0.19
			h-3.72H385.9v-70.65h60.43c7.38,0.07,13.27,1.59,17.66,4.58c4.39,2.99,6.59,7.22,6.59,12.7v0.38c0,4.14-0.86,7.51-2.58,10.12
			c-1.72,2.61-4.3,4.55-7.73,5.82C465.62,647.15,469.66,649.01,472.4,651.65 M442.28,639.91c1.49-0.16,2.77-0.72,3.82-1.67
			c1.05-0.95,1.58-2.54,1.58-4.77c0-2.04-0.51-3.5-1.53-4.39c-1.02-0.89-2.32-1.45-3.91-1.67c-1.59-0.22-3.91-0.33-6.97-0.33h-0.09
			h-27.21v12.98c6.55,0,10.88,0.03,12.98,0.09h4.58h9.74C438.44,640.15,440.78,640.07,442.28,639.91 M446.43,666.83
			c1.78-0.22,3.21-0.86,4.3-1.91c1.08-1.05,1.62-2.72,1.62-5.01c0-2.23-0.54-3.83-1.62-4.82c-1.08-0.99-2.52-1.59-4.3-1.81
			c-1.78-0.22-4.46-0.33-8.02-0.33h-0.09h-30.36v14.13c8.97,0,15.35,0.02,19.14,0.05c3.79,0.03,6.38,0.05,7.78,0.05h3.53
			C441.97,667.16,444.65,667.05,446.43,666.83"/>
		<path d="M483.4,683.11h-0.03c-3.79,0-6.87-3.07-6.87-6.87v-0.03c0-3.79,3.07-6.87,6.87-6.87h0.03c3.79,0,6.87,3.07,6.87,6.87v0.03
			C490.27,680.03,487.19,683.11,483.4,683.11z"/>
	</g>
</g>
<g>
	<path d="M421.49,514.37H293.01c-15.21,0-27.53-12.33-27.53-27.53V358.36c0-15.21,12.33-27.53,27.53-27.53h128.48
		c15.21,0,27.53,12.33,27.53,27.53v128.48C449.03,502.05,436.7,514.37,421.49,514.37z"/>
	<g>
		<path class="st0" d="M391.56,426.47c2.74,2.64,4.11,6.41,4.11,11.31v0.38c0,7.19-2.98,12.27-8.93,15.23
			c-5.95,2.96-14.5,4.47-25.63,4.53h-0.19h-3.72h-52.12v-70.65h60.43c7.38,0.07,13.27,1.59,17.66,4.58
			c4.39,2.99,6.59,7.22,6.59,12.7v0.38c0,4.14-0.86,7.51-2.58,10.12c-1.72,2.61-4.3,4.55-7.73,5.82
			C384.78,421.96,388.83,423.83,391.56,426.47 M361.44,414.72c1.49-0.16,2.77-0.72,3.82-1.67c1.05-0.95,1.58-2.54,1.58-4.77
			c0-2.04-0.51-3.5-1.53-4.39c-1.02-0.89-2.32-1.45-3.91-1.67c-1.59-0.22-3.91-0.33-6.97-0.33h-0.09h-27.21v12.98
			c6.55,0,10.88,0.03,12.98,0.09h4.58h9.74C357.61,414.96,359.95,414.88,361.44,414.72 M365.6,441.65c1.78-0.22,3.21-0.86,4.3-1.91
			c1.08-1.05,1.62-2.72,1.62-5.01c0-2.23-0.54-3.83-1.62-4.82c-1.08-0.99-2.52-1.59-4.3-1.81c-1.78-0.22-4.46-0.33-8.02-0.33h-0.09
			h-30.36v14.13c8.97,0,15.35,0.02,19.14,0.05c3.79,0.03,6.38,0.05,7.78,0.05h3.53C361.14,441.98,363.81,441.87,365.6,441.65"/>
		<path class="st0" d="M402.57,457.92h-0.03c-3.79,0-6.87-3.07-6.87-6.87v-0.03c0-3.79,3.07-6.87,6.87-6.87h0.03
			c3.79,0,6.87,3.07,6.87,6.87v0.03C409.43,454.85,406.36,457.92,402.57,457.92z"/>
	</g>
</g>
<g>
	<path class="st0" d="M276.34,289.19H147.86c-15.21,0-27.53-12.33-27.53-27.53V133.17c0-15.21,12.33-27.53,27.53-27.53h128.48
		c15.21,0,27.53,12.33,27.53,27.53v128.48C303.87,276.86,291.55,289.19,276.34,289.19z"/>
	<g>
		<path d="M246.41,201.28c2.74,2.64,4.11,6.41,4.11,11.31v0.38c0,7.19-2.98,12.27-8.93,15.23c-5.95,2.96-14.5,4.47-25.63,4.53h-0.19
			h-3.72h-52.12v-70.65h60.43c7.38,0.07,13.27,1.59,17.66,4.58c4.39,2.99,6.59,7.22,6.59,12.7v0.38c0,4.14-0.86,7.51-2.58,10.12
			c-1.72,2.61-4.3,4.55-7.73,5.82C239.63,196.78,243.67,198.64,246.41,201.28 M216.29,189.54c1.49-0.16,2.77-0.72,3.82-1.67
			c1.05-0.95,1.58-2.54,1.58-4.77c0-2.04-0.51-3.5-1.53-4.39c-1.02-0.89-2.32-1.45-3.91-1.67c-1.59-0.22-3.91-0.33-6.97-0.33h-0.09
			h-27.21v12.98c6.55,0,10.88,0.03,12.98,0.09h4.58h9.74C212.46,189.78,214.8,189.7,216.29,189.54 M220.44,216.46
			c1.78-0.22,3.21-0.86,4.3-1.91c1.08-1.05,1.62-2.72,1.62-5.01c0-2.23-0.54-3.83-1.62-4.82c-1.08-0.99-2.52-1.59-4.3-1.81
			c-1.78-0.22-4.46-0.33-8.02-0.33h-0.09h-30.36v14.13c8.97,0,15.35,0.02,19.14,0.05c3.79,0.03,6.38,0.05,7.78,0.05h3.53
			C215.99,216.79,218.66,216.68,220.44,216.46"/>
		<path d="M257.41,232.74h-0.03c-3.79,0-6.87-3.07-6.87-6.87v-0.03c0-3.79,3.07-6.87,6.87-6.87h0.03c3.79,0,6.87,3.07,6.87,6.87
			v0.03C264.28,229.66,261.21,232.74,257.41,232.74z"/>
	</g>
</g>
<g>
	<path d="M195.51,964.74H67.03c-15.21,0-27.53-12.33-27.53-27.53V808.73c0-15.21,12.33-27.53,27.53-27.53h128.48
		c15.21,0,27.53,12.33,27.53,27.53v128.48C223.04,952.42,210.71,964.74,195.51,964.74z"/>
	<g>
		<path class="st0" d="M165.58,876.84c2.74,2.64,4.11,6.41,4.11,11.31v0.38c0,7.19-2.98,12.27-8.93,15.23
			c-5.95,2.96-14.5,4.47-25.63,4.53h-0.19h-3.72H79.09v-70.65h60.43c7.38,0.07,13.27,1.59,17.66,4.58c4.39,2.99,6.59,7.22,6.59,12.7
			v0.38c0,4.14-0.86,7.51-2.58,10.12c-1.72,2.61-4.3,4.55-7.73,5.82C158.8,872.33,162.84,874.2,165.58,876.84 M135.46,865.09
			c1.49-0.16,2.77-0.72,3.82-1.67c1.05-0.95,1.58-2.54,1.58-4.77c0-2.04-0.51-3.5-1.53-4.39c-1.02-0.89-2.32-1.45-3.91-1.67
			c-1.59-0.22-3.91-0.33-6.97-0.33h-0.09h-27.21v12.98c6.55,0,10.88,0.03,12.98,0.09h4.58h9.74
			C131.62,865.33,133.96,865.25,135.46,865.09 M139.61,892.02c1.78-0.22,3.21-0.86,4.3-1.91c1.08-1.05,1.62-2.72,1.62-5.01
			c0-2.23-0.54-3.83-1.62-4.82c-1.08-0.99-2.52-1.59-4.3-1.81c-1.78-0.22-4.46-0.33-8.02-0.33h-0.09h-30.36v14.13
			c8.97,0,15.35,0.02,19.14,0.05c3.79,0.03,6.38,0.05,7.78,0.05h3.53C135.16,892.35,137.83,892.24,139.61,892.02"/>
		<path class="st0" d="M176.58,908.29h-0.03c-3.79,0-6.87-3.07-6.87-6.87v-0.03c0-3.79,3.07-6.87,6.87-6.87h0.03
			c3.79,0,6.87,3.07,6.87,6.87v0.03C183.45,905.22,180.37,908.29,176.58,908.29z"/>
	</g>
</g>
<g>
	<path class="st0" d="M276.34,739.56H147.86c-15.21,0-27.53-12.33-27.53-27.53V583.54c0-15.21,12.33-27.53,27.53-27.53h128.48
		c15.21,0,27.53,12.33,27.53,27.53v128.48C303.87,727.23,291.55,739.56,276.34,739.56z"/>
	<g>
		<path d="M246.41,651.65c2.74,2.64,4.11,6.41,4.11,11.31v0.38c0,7.19-2.98,12.27-8.93,15.23c-5.95,2.96-14.5,4.47-25.63,4.53h-0.19
			h-3.72h-52.12v-70.65h60.43c7.38,0.07,13.27,1.59,17.66,4.58c4.39,2.99,6.59,7.22,6.59,12.7v0.38c0,4.14-0.86,7.51-2.58,10.12
			c-1.72,2.61-4.3,4.55-7.73,5.82C239.63,647.15,243.67,649.01,246.41,651.65 M216.29,639.91c1.49-0.16,2.77-0.72,3.82-1.67
			c1.05-0.95,1.58-2.54,1.58-4.77c0-2.04-0.51-3.5-1.53-4.39c-1.02-0.89-2.32-1.45-3.91-1.67c-1.59-0.22-3.91-0.33-6.97-0.33h-0.09
			h-27.21v12.98c6.55,0,10.88,0.03,12.98,0.09h4.58h9.74C212.46,640.15,214.8,640.07,216.29,639.91 M220.44,666.83
			c1.78-0.22,3.21-0.86,4.3-1.91c1.08-1.05,1.62-2.72,1.62-5.01c0-2.23-0.54-3.83-1.62-4.82c-1.08-0.99-2.52-1.59-4.3-1.81
			c-1.78-0.22-4.46-0.33-8.02-0.33h-0.09h-30.36v14.13c8.97,0,15.35,0.02,19.14,0.05c3.79,0.03,6.38,0.05,7.78,0.05h3.53
			C215.99,667.16,218.66,667.05,220.44,666.83"/>
		<path d="M257.41,683.11h-0.03c-3.79,0-6.87-3.07-6.87-6.87v-0.03c0-3.79,3.07-6.87,6.87-6.87h0.03c3.79,0,6.87,3.07,6.87,6.87
			v0.03C264.28,680.03,261.21,683.11,257.41,683.11z"/>
	</g>
</g>
<g>
	<path d="M195.51,514.37H67.03c-15.21,0-27.53-12.33-27.53-27.53V358.36c0-15.21,12.33-27.53,27.53-27.53h128.48
		c15.21,0,27.53,12.33,27.53,27.53v128.48C223.04,502.05,210.71,514.37,195.51,514.37z"/>
	<g>
		<path class="st0" d="M165.58,426.47c2.74,2.64,4.11,6.41,4.11,11.31v0.38c0,7.19-2.98,12.27-8.93,15.23
			c-5.95,2.96-14.5,4.47-25.63,4.53h-0.19h-3.72H79.09v-70.65h60.43c7.38,0.07,13.27,1.59,17.66,4.58c4.39,2.99,6.59,7.22,6.59,12.7
			v0.38c0,4.14-0.86,7.51-2.58,10.12c-1.72,2.61-4.3,4.55-7.73,5.82C158.8,421.96,162.84,423.83,165.58,426.47 M135.46,414.72
			c1.49-0.16,2.77-0.72,3.82-1.67c1.05-0.95,1.58-2.54,1.58-4.77c0-2.04-0.51-3.5-1.53-4.39c-1.02-0.89-2.32-1.45-3.91-1.67
			c-1.59-0.22-3.91-0.33-6.97-0.33h-0.09h-27.21v12.98c6.55,0,10.88,0.03,12.98,0.09h4.58h9.74
			C131.62,414.96,133.96,414.88,135.46,414.72 M139.61,441.65c1.78-0.22,3.21-0.86,4.3-1.91c1.08-1.05,1.62-2.72,1.62-5.01
			c0-2.23-0.54-3.83-1.62-4.82c-1.08-0.99-2.52-1.59-4.3-1.81c-1.78-0.22-4.46-0.33-8.02-0.33h-0.09h-30.36v14.13
			c8.97,0,15.35,0.02,19.14,0.05c3.79,0.03,6.38,0.05,7.78,0.05h3.53C135.16,441.98,137.83,441.87,139.61,441.65"/>
		<path class="st0" d="M176.58,457.92h-0.03c-3.79,0-6.87-3.07-6.87-6.87v-0.03c0-3.79,3.07-6.87,6.87-6.87h0.03
			c3.79,0,6.87,3.07,6.87,6.87v0.03C183.45,454.85,180.37,457.92,176.58,457.92z"/>
	</g>
</g>
</svg>
