<svg width="673" height="163" viewBox="0 0 673 163" fill="none" xmlns="http://www.w3.org/2000/svg">
<g clip-path="url(#clip0_94_272)">
<path d="M193.587 129.54H139.271V9.03583H192.161C203.84 9.03583 212.985 11.719 219.636 17.0458C226.286 22.3726 229.612 29.7512 229.612 39.1026C229.612 45.4948 227.514 51.1767 223.317 56.0695C219.121 60.9622 213.935 63.8821 207.72 64.8291V66.3285C215.716 66.9598 222.328 69.9586 227.553 75.3643C232.779 80.77 235.392 87.32 235.392 95.0537C235.392 105.628 231.631 114.033 224.149 120.228C216.666 126.423 206.453 129.54 193.547 129.54H193.587ZM164.608 28.3307V58.9893H183.61C190.419 58.9893 195.645 57.6478 199.287 54.9647C202.929 52.2815 204.75 48.533 204.75 43.6797C204.75 38.8264 203.088 35.0779 199.762 32.3554C196.437 29.6722 191.765 28.2912 185.708 28.2912H164.608V28.3307ZM164.608 110.245H187.134C194.378 110.245 199.96 108.746 203.8 105.786C207.64 102.827 209.58 98.526 209.58 92.8836C209.58 87.2411 207.601 83.177 203.682 80.2965C199.762 77.4161 194.022 75.9956 186.54 75.9956H164.568V110.245H164.608Z" fill="white"/>
<path d="M243.151 129.54V37.406H266.785V52.1237H268.289C269.517 47.4283 272.327 43.5614 276.722 40.5231C281.116 37.4454 286.223 35.946 292.003 35.946C296.199 35.946 299.366 36.3406 301.544 37.1298V59.2656C298.97 58.2791 295.13 57.7662 289.984 57.7662C283.214 57.7662 277.791 59.6207 273.673 63.3692C269.556 67.1177 267.498 72.1683 267.498 78.5604V129.579H243.111L243.151 129.54Z" fill="white"/>
<path d="M317.498 24.5427C313.143 24.5427 309.659 23.3984 307.007 21.1099C304.394 18.8214 303.087 15.862 303.087 12.2714C303.087 8.68071 304.394 5.64246 307.007 3.39337C309.619 1.14428 313.103 0 317.498 0C321.892 0 325.336 1.14428 327.988 3.39337C330.601 5.64246 331.908 8.60179 331.908 12.2714C331.908 15.9409 330.562 18.8608 327.909 21.1099C325.257 23.3984 321.773 24.5427 317.458 24.5427H317.498ZM305.265 129.5V37.406H329.651V129.54H305.265V129.5Z" fill="white"/>
<path d="M423.357 69.9192H400.554C399.722 65.421 397.703 61.8698 394.576 59.2656C391.409 56.6614 387.292 55.3987 382.224 55.3987C375.613 55.3987 370.546 57.8056 367.022 62.58C363.46 67.3544 361.718 74.2595 361.718 83.2953C361.718 92.3312 363.499 99.4336 367.022 104.287C370.585 109.14 375.653 111.587 382.224 111.587C387.252 111.587 391.33 110.403 394.497 107.996C397.664 105.589 399.683 102.156 400.554 97.658H423.357C422.367 108.075 418.21 116.321 410.965 122.437C403.721 128.553 394.14 131.592 382.224 131.592C367.814 131.592 356.69 127.409 348.851 119.005C341.013 110.64 337.094 98.7233 337.094 83.2953C337.094 67.8674 341.013 56.1879 348.812 47.9017C356.65 39.6156 367.775 35.4725 382.224 35.4725C394.299 35.4725 403.919 38.5502 411.084 44.7451C418.25 50.94 422.367 59.3445 423.357 69.9586V69.9192Z" fill="white"/>
<path d="M456.413 73.3914L487.332 37.4059H515.083L479.889 76.9032L517.498 129.5H488.598L461.599 92.0944L454.909 98.96V129.54H430.522V2.24908H454.909V73.3914H456.413Z" fill="white"/>
<path d="M521.061 129.54V2.24908H545.447V129.54H521.061Z" fill="white"/>
<path d="M569.516 163C564.33 163 561.202 162.921 560.213 162.763V143.232C560.767 143.35 562.628 143.389 565.755 143.389C570.387 143.389 574.029 142.6 576.642 141.022C579.255 139.444 581.076 136.918 582.105 133.446L582.936 130.092L550.514 37.4059H577.394L596.832 107.207H598.336L617.774 37.4059H643.586L611.757 130.96C607.837 142.758 602.731 151.044 596.396 155.858C590.062 160.633 581.115 163.039 569.556 163.039L569.516 163Z" fill="white"/>
<path d="M116.112 9.03583H12.5891C5.63631 9.03583 0 14.6536 0 21.5834V33.1445C0 40.0743 5.63631 45.6921 12.5891 45.6921H116.112C123.065 45.6921 128.701 40.0743 128.701 33.1445V21.5834C128.701 14.6536 123.065 9.03583 116.112 9.03583Z" fill="white"/>
<path d="M116.112 56.2273H12.5891C5.63631 56.2273 0 61.845 0 68.7749V116.992C0 123.922 5.63631 129.54 12.5891 129.54H116.112C123.065 129.54 128.701 123.922 128.701 116.992V68.7749C128.701 61.845 123.065 56.2273 116.112 56.2273Z" fill="white"/>
<path d="M660.806 32.2764C658.59 32.2764 656.571 31.724 654.67 30.6587C652.81 29.5933 651.305 28.0939 650.236 26.2394C649.128 24.3849 648.613 22.3331 648.613 20.1234C648.613 17.9138 649.168 15.862 650.236 14.0075C651.305 12.153 652.81 10.6536 654.67 9.58823C656.531 8.52287 658.59 7.97046 660.806 7.97046C663.023 7.97046 665.082 8.52287 666.943 9.58823C668.803 10.693 670.308 12.153 671.377 14.0075C672.445 15.862 673 17.9138 673 20.1234C673 22.3331 672.445 24.3849 671.377 26.2394C670.308 28.0939 668.803 29.5933 666.943 30.6587C665.082 31.7635 663.023 32.2764 660.806 32.2764ZM660.806 29.1593C663.34 29.1593 665.517 28.2912 667.299 26.5156C669.08 24.74 669.951 22.6093 669.951 20.1234C669.951 17.6376 669.08 15.4674 667.299 13.6918C665.517 11.9162 663.38 11.0482 660.806 11.0482C658.233 11.0482 656.135 11.9162 654.354 13.6918C652.572 15.4674 651.701 17.5982 651.701 20.1234C651.701 22.6487 652.572 24.7795 654.354 26.5156C656.135 28.2912 658.273 29.1593 660.806 29.1593ZM658.867 25.5292H655.977V14.3626H661.875C663.103 14.3626 664.092 14.6783 664.884 15.3491C665.636 16.0198 666.032 16.8879 666.032 17.9533C666.032 18.8213 665.834 19.5316 665.399 20.1234C664.963 20.7153 664.409 21.1099 663.657 21.3466L666.586 25.5292H663.142L660.609 21.7412H658.867V25.5292ZM658.867 16.7301V19.4921H661.163C662.35 19.4921 662.944 19.0186 662.944 18.1111C662.944 17.2036 662.35 16.7301 661.202 16.7301H658.867Z" fill="white"/>
</g>
<defs>
<clipPath id="clip0_94_272">
<rect width="673" height="163" fill="white"/>
</clipPath>
</defs>
</svg>
