<?xml version="1.0" encoding="utf-8"?>
<!-- Generator: Adobe Illustrator 26.0.1, SVG Export Plug-In . SVG Version: 6.00 Build 0)  -->
<svg version="1.1" id="Layer_1" xmlns="http://www.w3.org/2000/svg" xmlns:xlink="http://www.w3.org/1999/xlink" x="0px" y="0px"
	 viewBox="0 0 680.3 170.1" style="enable-background:new 0 0 680.3 170.1;" xml:space="preserve">
<style type="text/css">
	.st0{fill:#011121;}
	.st1{fill:#FFFFFF;}
</style>
<rect x="-43.8" y="-32" class="st0" width="768" height="257.8"/>
<path class="st1" d="M196.7,133.5h-54.4V12.3h53c11.7,0,20.9,2.7,27.5,8.1c6.7,5.4,10,12.8,10,22.2c0,6.4-2.1,12.1-6.3,17
	c-4.2,4.9-9.4,7.9-15.6,8.8v1.5c8,0.6,14.6,3.6,19.9,9.1c5.2,5.4,7.9,12,7.9,19.8c0,10.6-3.8,19.1-11.3,25.3
	C219.8,130.3,209.6,133.5,196.7,133.5 M167.6,31.7v30.8h19.1c6.8,0,12.1-1.3,15.7-4c3.6-2.7,5.5-6.5,5.5-11.3c0-4.9-1.7-8.7-5-11.4
	c-3.3-2.7-8-4.1-14.1-4.1H167.6z M167.6,114.1h22.6c7.3,0,12.8-1.5,16.7-4.5c3.9-3,5.8-7.3,5.8-13c0-5.5-2-9.8-5.9-12.6
	c-3.9-2.9-9.7-4.3-17.2-4.3h-22V114.1z"/>
<path class="st1" d="M246.4,133.5V40.8H270v14.8h1.5c1.2-4.7,4-8.6,8.4-11.7c4.4-3.1,9.5-4.6,15.3-4.6c4.2,0,7.4,0.4,9.6,1.2v22.3
	c-2.6-1-6.4-1.5-11.6-1.5c-6.8,0-12.2,1.9-16.3,5.6c-4.1,3.8-6.2,8.8-6.2,15.3v51.3H246.4z"/>
<path class="st1" d="M320.9,27.9c-4.4,0-7.9-1.1-10.5-3.4c-2.6-2.3-3.9-5.3-3.9-8.9c0-3.7,1.3-6.7,3.9-8.9c2.6-2.3,6.1-3.4,10.5-3.4
	c4.4,0,7.9,1.1,10.5,3.4c2.6,2.3,3.9,5.2,3.9,8.9c0,3.6-1.3,6.6-4,8.9C328.7,26.7,325.2,27.9,320.9,27.9 M308.6,40.8h24.4v92.6
	h-24.4V40.8z"/>
<path class="st1" d="M427,73.5h-22.8c-0.8-4.5-2.8-8.1-6-10.7c-3.2-2.6-7.3-3.9-12.4-3.9c-6.6,0-11.7,2.4-15.2,7.2
	c-3.6,4.8-5.3,11.8-5.3,20.8c0,9.2,1.8,16.2,5.3,21.1c3.6,4.9,8.6,7.3,15.2,7.3c5,0,9.1-1.2,12.3-3.6c3.2-2.4,5.2-5.9,6.1-10.4H427
	c-1,10.5-5.2,18.8-12.4,24.9c-7.3,6.1-16.9,9.2-28.8,9.2c-14.4,0-25.6-4.2-33.5-12.6c-7.9-8.4-11.8-20.4-11.8-35.9
	c0-15.4,3.9-27.3,11.8-35.6c7.8-8.3,19-12.5,33.5-12.5c12.1,0,21.7,3.1,28.9,9.3C421.9,54.3,426,62.8,427,73.5"/>
<polygon class="st1" points="460.1,77 491.1,40.8 518.9,40.8 483.6,80.6 521.4,133.5 492.4,133.5 465.3,95.8 458.6,102.7 
	458.6,133.5 434.2,133.5 434.2,5.5 458.6,5.5 458.6,77 "/>
<rect x="524.9" y="5.5" class="st1" width="24.4" height="128"/>
<path class="st1" d="M573.5,167.1c-5.2,0-8.3-0.1-9.3-0.3v-19.7c0.6,0.1,2.4,0.2,5.5,0.2c4.6,0,8.3-0.8,10.9-2.4
	c2.6-1.6,4.5-4.1,5.5-7.6l0.8-3.4l-32.5-93.2h27l19.5,70.2h1.5l19.5-70.2h25.9l-31.9,94.1c-3.9,11.9-9.1,20.2-15.4,25
	C594.1,164.7,585.1,167.1,573.5,167.1"/>
<path class="st1" d="M131.6,24.9v11.6c0,7-5.6,12.6-12.6,12.6H15.3c-7,0-12.6-5.6-12.6-12.6V24.9c0-7,5.6-12.6,12.6-12.6H119
	C126,12.3,131.6,17.9,131.6,24.9"/>
<path class="st1" d="M131.6,72.4v48.5c0,7-5.6,12.6-12.6,12.6H15.3c-7,0-12.6-5.6-12.6-12.6V72.4c0-7,5.6-12.6,12.6-12.6H119
	C126,59.7,131.6,65.4,131.6,72.4"/>
<path class="st1" d="M665,35.6c-2.2,0-4.3-0.5-6.1-1.6c-1.9-1.1-3.4-2.6-4.5-4.5c-1.1-1.9-1.6-3.9-1.6-6.2c0-2.2,0.5-4.3,1.6-6.2
	c1.1-1.9,2.6-3.4,4.5-4.5c1.9-1.1,3.9-1.6,6.1-1.6c2.2,0,4.3,0.5,6.2,1.6c1.9,1.1,3.4,2.6,4.4,4.5c1.1,1.9,1.6,3.9,1.6,6.2
	c0,2.2-0.5,4.3-1.6,6.2c-1.1,1.9-2.6,3.4-4.4,4.5C669.3,35.1,667.2,35.6,665,35.6 M665,32.5c2.6,0,4.7-0.9,6.5-2.7
	c1.8-1.8,2.7-3.9,2.7-6.4c0-2.5-0.9-4.7-2.7-6.5c-1.8-1.8-3.9-2.7-6.5-2.7c-2.5,0-4.7,0.9-6.5,2.7c-1.8,1.8-2.7,3.9-2.7,6.5
	c0,2.5,0.9,4.7,2.7,6.4C660.3,31.6,662.5,32.5,665,32.5 M663.1,28.8h-2.9V17.6h5.9c1.2,0,2.2,0.3,3,1c0.8,0.7,1.2,1.5,1.2,2.6
	c0,0.9-0.2,1.6-0.6,2.2c-0.4,0.6-1,1-1.8,1.2l2.9,4.2h-3.4l-2.6-3.8h-1.7V28.8z M663.1,20v2.8h2.3c1.2,0,1.8-0.5,1.8-1.4
	c0-0.9-0.6-1.4-1.8-1.4H663.1z"/>
</svg>
