<svg width="831" height="414" viewBox="0 0 831 414" fill="none" xmlns="http://www.w3.org/2000/svg">
<g clip-path="url(#clip0_93_78)">
<path d="M312.585 12.0804C304.794 4.29101 294.437 0 283.418 0H41.2472C30.2284 0 19.8713 4.29101 12.0801 12.0804C4.28891 19.8697 0 30.2243 0 41.2405V73.9396C0 84.9558 4.28891 95.3104 12.0801 103.1C19.8713 110.889 30.2284 115.177 41.2472 115.177H283.418C294.437 115.177 304.794 110.889 312.585 103.1C320.376 95.3104 324.668 84.9558 324.668 73.9396V41.2405C324.668 30.2243 320.376 19.8697 312.585 12.0804ZM319.54 73.9396C319.54 93.853 303.336 110.053 283.418 110.053H41.2472C21.3291 110.053 5.12547 93.853 5.12547 73.9396V41.2405C5.12547 21.3271 21.3291 5.12425 41.2472 5.12425H283.418C303.336 5.12425 319.54 21.3271 319.54 41.2405V73.9396Z" fill="#011121"/>
<path d="M312.585 161.489C304.794 153.703 294.437 149.412 283.418 149.412H41.2472C30.2284 149.412 19.8713 153.703 12.0801 161.489C4.28891 169.278 0 179.636 0 190.649V223.351C0 234.367 4.28891 244.722 12.0801 252.511C19.8713 260.301 30.2284 264.589 41.2472 264.589H283.418C294.437 264.589 304.794 260.301 312.585 252.511C320.376 244.722 324.668 234.367 324.668 223.351V190.649C324.668 179.636 320.376 169.278 312.585 161.489ZM319.54 223.351C319.54 243.265 303.336 259.464 283.418 259.464H41.2472C21.3291 259.464 5.12547 243.265 5.12547 223.351V190.649C5.12547 170.736 21.3291 154.536 41.2472 154.536H283.418C303.336 154.536 319.54 170.736 319.54 190.649V223.351Z" fill="#011121"/>
<path d="M312.585 310.9C304.794 303.111 294.437 298.823 283.418 298.823H41.2472C30.2284 298.823 19.8713 303.111 12.0801 310.9C4.28891 318.689 0 329.044 0 340.06V372.762C0 383.775 4.28891 394.133 12.0801 401.923C19.8713 409.709 30.2284 414 41.2472 414H283.418C294.437 414 304.794 409.709 312.585 401.923C320.376 394.133 324.668 383.775 324.668 372.762V340.06C324.668 329.044 320.376 318.689 312.585 310.9ZM319.54 372.762C319.54 392.676 303.336 408.876 283.418 408.876H41.2472C21.3291 408.876 5.12547 392.676 5.12547 372.762V340.06C5.12547 320.147 21.3291 303.947 41.2472 303.947H283.418C303.336 303.947 319.54 320.147 319.54 340.06V372.762Z" fill="#011121"/>
<path d="M79.6725 64.4462H76.3481V48.6147H86.5554V51.4577H79.6756V64.4462H79.6725Z" fill="#011121"/>
<path d="M91.4122 58.6321C91.3623 59.5746 91.2562 60.3954 91.0938 61.0913C90.9315 61.7872 90.6943 62.4051 90.379 62.9512C90.0638 63.4974 89.6486 63.9062 89.1336 64.1808C88.6185 64.4554 87.9973 64.5927 87.2732 64.5927C86.8767 64.5927 86.5365 64.5459 86.2524 64.4492V61.6405C86.4585 61.6905 86.6863 61.7185 86.9423 61.7185C87.2263 61.7185 87.4698 61.6374 87.6727 61.4783C87.8756 61.3191 88.0348 61.0819 88.1565 60.7698C88.2783 60.4578 88.3688 60.1176 88.4312 59.7431C88.4937 59.3686 88.5405 58.9286 88.5686 58.4168L88.9182 52.3501H98.0267V64.4523H94.8334V54.8623H91.662L91.4091 58.6353L91.4122 58.6321Z" fill="#011121"/>
<path d="M104.757 64.6334C103.586 64.6334 102.634 64.2995 101.897 63.6348C101.161 62.9701 100.795 62.0869 100.795 60.9915C100.795 59.8962 101.198 59.0442 102.007 58.4201C102.815 57.7959 103.973 57.437 105.481 57.3496L108.412 57.1749V56.1887C108.412 55.6832 108.237 55.2931 107.884 55.0216C107.532 54.7501 107.029 54.6096 106.37 54.6096C105.184 54.6096 104.457 54.9841 104.185 55.73H101.245C101.348 54.6096 101.875 53.7234 102.831 53.068C103.786 52.4126 105.025 52.085 106.545 52.085C108.065 52.085 109.373 52.4438 110.25 53.1616C111.128 53.8794 111.561 54.8874 111.561 56.1887V64.4493H108.468V62.8702H108.271C107.956 63.4257 107.488 63.8595 106.867 64.1716C106.246 64.4837 105.543 64.6366 104.76 64.6366L104.757 64.6334ZM105.812 62.2305C106.551 62.2305 107.169 62.0214 107.666 61.6063C108.162 61.1913 108.412 60.6732 108.412 60.0584V59.169L105.965 59.3219C104.604 59.4156 103.923 59.9024 103.923 60.7825C103.923 61.2287 104.098 61.5814 104.444 61.8404C104.791 62.0994 105.247 62.2305 105.812 62.2305Z" fill="#011121"/>
<path d="M114.92 64.446V52.3438H120.967C122.218 52.3438 123.195 52.6153 123.901 53.1551C124.606 53.695 124.959 54.4409 124.959 55.3927C124.959 56.0231 124.753 56.5817 124.338 57.0717C123.923 57.5616 123.408 57.855 122.787 57.9486V58.1452C123.592 58.217 124.244 58.5166 124.747 59.0409C125.249 59.5651 125.499 60.1986 125.499 60.9445C125.499 62.0055 125.103 62.8544 124.31 63.491C123.517 64.1277 122.44 64.446 121.079 64.446H114.924H114.92ZM120.121 54.4502H118.057V57.2371H119.946C120.567 57.2371 121.039 57.1154 121.357 56.8688C121.675 56.6223 121.834 56.279 121.834 55.8327C121.834 55.3865 121.688 55.0619 121.394 54.8185C121.101 54.5751 120.676 54.4502 120.121 54.4502ZM120.121 59.1563H118.057V62.3395H120.286C120.939 62.3395 121.435 62.2022 121.778 61.9275C122.122 61.6529 122.293 61.2566 122.293 60.7385C122.293 60.2205 122.106 59.8273 121.735 59.5589C121.363 59.2905 120.823 59.1594 120.121 59.1594V59.1563Z" fill="#011121"/>
<path d="M136.418 64.446V59.4965H131.633V64.446H128.439V52.3438H131.633V56.9843H136.418V52.3438H139.611V64.446H136.418Z" fill="#011121"/>
<path d="M143.023 64.446V52.3438H146.216V55.8327H148.62C150.046 55.8327 151.182 56.2228 152.028 56.9999C152.874 57.777 153.296 58.8255 153.296 60.1425C153.296 61.4594 152.874 62.5049 152.028 63.2788C151.182 64.0528 150.046 64.4428 148.62 64.4428H143.023V64.446ZM148.114 58.3137H146.216V61.9338H148.114C148.723 61.9338 149.207 61.7684 149.569 61.4345C149.931 61.1005 150.112 60.6636 150.112 60.1237C150.112 59.5839 149.928 59.147 149.562 58.813C149.197 58.4791 148.713 58.3137 148.114 58.3137ZM154.632 64.446V52.3438H157.825V64.446H154.632Z" fill="#011121"/>
<path d="M164.39 64.4462H161.252V52.344H164.39V59.7838H164.586L169.415 52.344H172.552V64.4462H169.415V56.919H169.218L164.39 64.4462ZM162.601 46.7173H164.992C165.008 47.3102 165.176 47.7939 165.498 48.1715C165.819 48.5492 166.244 48.7364 166.771 48.7364C167.299 48.7364 167.723 48.5492 168.051 48.1715C168.379 47.7939 168.547 47.3102 168.56 46.7173H170.951C170.951 47.8501 170.567 48.7739 169.799 49.4885C169.031 50.2031 168.02 50.5589 166.771 50.5589C165.523 50.5589 164.511 50.2032 163.746 49.4947C162.982 48.7863 162.601 47.8595 162.601 46.7204V46.7173Z" fill="#011121"/>
<path d="M184.099 60.3114C184.217 60.8731 184.492 61.31 184.926 61.6159C185.36 61.9217 185.909 62.0777 186.568 62.0777C187.32 62.0777 187.944 61.8312 188.434 61.3413C188.924 60.8513 189.199 60.1835 189.258 59.3346H184.804V57.1844H189.227C189.146 56.4167 188.862 55.8113 188.378 55.3682C187.894 54.925 187.289 54.7034 186.574 54.7034C185.922 54.7034 185.382 54.8657 184.951 55.1903C184.52 55.5148 184.242 55.9486 184.117 56.4916H181.121C181.274 55.1747 181.836 54.1105 182.806 53.2991C183.777 52.4877 185.035 52.082 186.586 52.082C188.4 52.082 189.842 52.6469 190.91 53.7766C191.977 54.9063 192.511 56.4386 192.511 58.3672C192.511 60.2958 191.977 61.8749 190.91 63.0077C189.842 64.1406 188.394 64.7085 186.565 64.7085C184.991 64.7085 183.727 64.3091 182.769 63.5133C181.811 62.7175 181.258 61.6471 181.111 60.3083H184.108L184.099 60.3114Z" fill="#011121"/>
<path d="M199.091 59.4344H198.519V64.4494H195.326V52.3472H198.519V57.0657H199.047L202.702 52.3472H206.336L201.694 57.8646L206.576 64.4463H202.768L199.091 59.4312V59.4344Z" fill="#011121"/>
<path d="M215.891 52.1475C217.427 52.1475 218.635 52.6998 219.512 53.8046C220.389 54.9093 220.829 56.4385 220.829 58.3921C220.829 60.3456 220.395 61.8654 219.524 62.9733C218.653 64.0812 217.461 64.6366 215.947 64.6366C215.082 64.6366 214.333 64.4588 213.696 64.0999C213.06 63.741 212.591 63.2417 212.292 62.5957H212.095V68.4658H208.902V52.3503H211.995V54.3351H212.192C212.52 53.6548 213.01 53.1211 213.662 52.7342C214.314 52.3472 215.054 52.1537 215.891 52.1537V52.1475ZM214.805 61.9653C215.669 61.9653 216.34 61.6501 216.824 61.0166C217.308 60.3831 217.548 59.5093 217.548 58.3889C217.548 57.2686 217.305 56.4041 216.818 55.7738C216.331 55.1434 215.663 54.825 214.814 54.825C213.965 54.825 213.294 55.1465 212.801 55.7862C212.307 56.426 212.061 57.2998 212.061 58.4014C212.061 59.503 212.307 60.3768 212.797 61.0135C213.288 61.6501 213.956 61.9684 214.805 61.9684V61.9653Z" fill="#011121"/>
<path d="M226.985 64.6334C225.814 64.6334 224.862 64.2995 224.125 63.6348C223.389 62.9701 223.023 62.0869 223.023 60.9915C223.023 59.8962 223.426 59.0442 224.235 58.4201C225.043 57.7959 226.201 57.437 227.709 57.3496L230.64 57.1749V56.1887C230.64 55.6832 230.465 55.2931 230.112 55.0216C229.76 54.7501 229.257 54.6096 228.598 54.6096C227.412 54.6096 226.685 54.9841 226.413 55.73H223.473C223.576 54.6096 224.103 53.7234 225.059 53.068C226.014 52.4126 227.253 52.085 228.773 52.085C230.293 52.085 231.601 52.4438 232.478 53.1616C233.356 53.8794 233.789 54.8874 233.789 56.1887V64.4493H230.696V62.8702H230.499C230.184 63.4257 229.716 63.8595 229.095 64.1716C228.474 64.4837 227.771 64.6366 226.988 64.6366L226.985 64.6334ZM228.04 62.2305C228.779 62.2305 229.397 62.0214 229.894 61.6063C230.39 61.1913 230.64 60.6732 230.64 60.0584V59.169L228.193 59.3219C226.832 59.4156 226.151 59.9024 226.151 60.7825C226.151 61.2287 226.326 61.5814 226.672 61.8404C227.019 62.0994 227.475 62.2305 228.04 62.2305Z" fill="#011121"/>
<path d="M245.126 64.446V59.4965H240.341V64.446H237.148V52.3438H240.341V56.9843H245.126V52.3438H248.32V64.446H245.126Z" fill="#011121"/>
<path d="M138.541 198.679C140.882 198.679 142.736 199.425 144.1 200.916C145.464 202.408 146.148 204.433 146.148 206.995C146.148 209.558 145.464 211.592 144.1 213.084C142.736 214.576 140.882 215.322 138.541 215.322C136.2 215.322 134.333 214.576 132.966 213.084C131.599 211.592 130.915 209.561 130.915 206.995C130.915 204.43 131.602 202.408 132.978 200.916C134.355 199.425 136.209 198.679 138.541 198.679ZM141.619 203.051C140.854 202.074 139.827 201.587 138.541 201.587C137.255 201.587 136.225 202.074 135.457 203.051C134.689 204.028 134.305 205.341 134.305 206.995C134.305 208.649 134.686 209.966 135.451 210.946C136.215 211.926 137.245 212.416 138.541 212.416C139.836 212.416 140.854 211.926 141.619 210.946C142.383 209.966 142.764 208.649 142.764 206.995C142.764 205.341 142.383 204.028 141.619 203.051Z" fill="#011121"/>
<path d="M162.957 214.916V209.966H158.172V214.916H154.979V202.813H158.172V207.454H162.957V202.813H166.15V214.916H162.957Z" fill="#011121"/>
<path d="M172.88 215.103C171.71 215.103 170.757 214.769 170.021 214.105C169.284 213.44 168.919 212.557 168.919 211.461C168.919 210.366 169.322 209.514 170.13 208.89C170.939 208.266 172.097 207.907 173.604 207.819L176.535 207.645V206.658C176.535 206.153 176.361 205.763 176.008 205.491C175.655 205.22 175.153 205.079 174.494 205.079C173.308 205.079 172.58 205.454 172.309 206.2H169.368C169.471 205.079 169.999 204.193 170.954 203.538C171.909 202.882 173.149 202.555 174.669 202.555C176.189 202.555 177.497 202.914 178.374 203.631C179.251 204.349 179.685 205.357 179.685 206.658V214.919H176.592V213.34H176.395C176.08 213.895 175.611 214.329 174.99 214.641C174.369 214.953 173.667 215.106 172.883 215.106L172.88 215.103ZM173.935 212.7C174.675 212.7 175.293 212.491 175.789 212.076C176.286 211.661 176.535 211.143 176.535 210.528V209.639L174.088 209.792C172.727 209.885 172.047 210.372 172.047 211.252C172.047 211.698 172.221 212.051 172.568 212.31C172.914 212.569 173.37 212.7 173.935 212.7Z" fill="#011121"/>
<path d="M193.751 207.083H190.767C190.657 206.49 190.395 206.025 189.983 205.685C189.571 205.345 189.031 205.176 188.363 205.176C187.498 205.176 186.837 205.491 186.371 206.119C185.906 206.746 185.675 207.654 185.675 208.84C185.675 210.026 185.906 210.959 186.371 211.599C186.837 212.239 187.501 212.56 188.363 212.56C189.022 212.56 189.558 212.404 189.971 212.089C190.383 211.774 190.648 211.321 190.767 210.728H193.751C193.62 212.095 193.076 213.181 192.127 213.98C191.179 214.779 189.921 215.181 188.363 215.181C186.474 215.181 185.017 214.632 183.99 213.531C182.963 212.429 182.448 210.865 182.448 208.84C182.448 206.815 182.96 205.279 183.984 204.187C185.007 203.095 186.468 202.552 188.363 202.552C189.942 202.552 191.204 202.957 192.143 203.769C193.083 204.58 193.62 205.685 193.751 207.083Z" fill="#011121"/>
<path d="M128.39 364.196H125.075V357.58H117.942V364.196H114.627V348.365H117.942V354.75H125.075V348.365H128.39V364.196Z" fill="#011121"/>
<path d="M141.871 362.779C140.813 363.9 139.355 364.458 137.498 364.458C135.641 364.458 134.183 363.9 133.125 362.779C132.067 361.659 131.539 360.114 131.539 358.139C131.539 356.163 132.073 354.637 133.137 353.514C134.202 352.39 135.656 351.829 137.498 351.829C139.34 351.829 140.794 352.39 141.859 353.514C142.923 354.637 143.457 356.179 143.457 358.139C143.457 360.099 142.929 361.662 141.871 362.779ZM137.498 361.846C138.347 361.846 139.006 361.522 139.474 360.876C139.942 360.23 140.176 359.315 140.176 358.139C140.176 356.962 139.939 356.07 139.468 355.417C138.996 354.765 138.338 354.441 137.498 354.441C136.658 354.441 135.99 354.765 135.522 355.417C135.054 356.07 134.82 356.975 134.82 358.139C134.82 359.303 135.051 360.23 135.516 360.876C135.981 361.522 136.64 361.846 137.498 361.846Z" fill="#011121"/>
<path d="M146.279 364.196V352.094H152.325C153.577 352.094 154.554 352.366 155.259 352.906C155.965 353.446 156.317 354.191 156.317 355.143C156.317 355.774 156.111 356.332 155.696 356.822C155.281 357.312 154.766 357.605 154.145 357.699V357.896C154.95 357.967 155.603 358.267 156.105 358.791C156.608 359.316 156.858 359.949 156.858 360.695C156.858 361.756 156.461 362.605 155.668 363.241C154.875 363.878 153.798 364.196 152.437 364.196H146.282H146.279ZM151.479 354.201H149.416V356.988H151.304C151.926 356.988 152.397 356.866 152.715 356.619C153.034 356.373 153.193 356.03 153.193 355.583C153.193 355.137 153.046 354.812 152.753 354.569C152.459 354.326 152.035 354.201 151.479 354.201ZM151.479 358.907H149.416V362.09H151.645C152.297 362.09 152.793 361.953 153.137 361.678C153.48 361.403 153.652 361.007 153.652 360.489C153.652 359.971 153.464 359.578 153.093 359.309C152.722 359.041 152.182 358.91 151.479 358.91V358.907Z" fill="#011121"/>
<path d="M169.372 362.779C168.313 363.9 166.856 364.458 164.998 364.458C163.141 364.458 161.683 363.9 160.625 362.779C159.567 361.659 159.04 360.114 159.04 358.139C159.04 356.163 159.573 354.637 160.638 353.514C161.702 352.39 163.157 351.829 164.998 351.829C166.84 351.829 168.295 352.39 169.359 353.514C170.424 354.637 170.957 356.179 170.957 358.139C170.957 360.099 170.43 361.662 169.372 362.779ZM164.998 361.846C165.848 361.846 166.506 361.522 166.974 360.876C167.443 360.23 167.677 359.315 167.677 358.139C167.677 356.962 167.439 356.07 166.968 355.417C166.497 354.765 165.838 354.441 164.998 354.441C164.159 354.441 163.491 354.765 163.023 355.417C162.554 356.07 162.32 356.975 162.32 358.139C162.32 359.303 162.551 360.23 163.016 360.876C163.481 361.522 164.14 361.846 164.998 361.846Z" fill="#011121"/>
<path d="M184.489 356.363H181.505C181.396 355.77 181.133 355.305 180.721 354.965C180.309 354.625 179.769 354.457 179.101 354.457C178.237 354.457 177.575 354.772 177.11 355.399C176.645 356.026 176.414 356.934 176.414 358.12C176.414 359.306 176.645 360.239 177.11 360.879C177.575 361.519 178.24 361.84 179.101 361.84C179.76 361.84 180.297 361.684 180.709 361.369C181.121 361.054 181.386 360.601 181.505 360.008H184.489C184.358 361.375 183.815 362.461 182.866 363.26C181.917 364.059 180.659 364.462 179.101 364.462C177.213 364.462 175.755 363.912 174.728 362.811C173.701 361.709 173.186 360.146 173.186 358.12C173.186 356.095 173.698 354.56 174.722 353.467C175.746 352.375 177.207 351.832 179.101 351.832C180.681 351.832 181.942 352.238 182.881 353.049C183.821 353.861 184.358 354.965 184.489 356.363Z" fill="#011121"/>
<path d="M196.253 352.094V354.606H192.633V364.196H189.439V354.606H185.818V352.094H196.253Z" fill="#011121"/>
<path d="M201.872 364.196H198.735V352.094H201.872V359.534H202.069L206.898 352.094H210.035V364.196H206.898V356.669H206.701L201.872 364.196Z" fill="#011121"/>
<path d="M164.895 0H159.77V5.12425H164.895V0Z" fill="#011121"/>
<path d="M164.895 110.053H159.77V154.536H164.895V110.053Z" fill="#011121"/>
<path d="M164.895 259.464H159.77V303.947H164.895V259.464Z" fill="#011121"/>
<path d="M162.333 110.052L151.46 120.922L155.085 124.546L165.957 113.676L162.333 110.052Z" fill="#011121"/>
<path d="M162.335 110.05L158.71 113.674L169.583 124.544L173.207 120.921L162.335 110.05Z" fill="#011121"/>
<path d="M162.334 259.464L151.461 270.334L155.085 273.957L165.958 263.087L162.334 259.464Z" fill="#011121"/>
<path d="M162.335 259.462L158.711 263.085L169.584 273.956L173.208 270.332L162.335 259.462Z" fill="#011121"/>
<path d="M818.917 86.7848C811.129 78.9954 800.769 74.7075 789.753 74.7075H547.579C536.56 74.7075 526.203 78.9954 518.412 86.7848C510.621 94.5741 506.332 104.929 506.332 115.945V148.647C506.332 159.66 510.621 170.018 518.412 177.804C526.203 185.594 536.56 189.885 547.579 189.885H789.753C800.769 189.885 811.129 185.594 818.917 177.804C826.708 170.018 831 159.66 831 148.647V115.945C831 104.929 826.708 94.5741 818.917 86.7848ZM825.875 148.647C825.875 168.557 809.668 184.76 789.753 184.76H547.579C527.661 184.76 511.458 168.557 511.458 148.647V115.945C511.458 96.0315 527.661 79.8318 547.579 79.8318H789.753C809.668 79.8318 825.875 96.0315 825.875 115.945V148.647Z" fill="#011121"/>
<path d="M818.917 236.196C811.129 228.407 800.769 224.119 789.753 224.119H547.579C536.56 224.119 526.203 228.407 518.412 236.196C510.621 243.986 506.332 254.34 506.332 265.357V298.056C506.332 309.072 510.621 319.426 518.412 327.216C526.203 335.005 536.56 339.293 547.579 339.293H789.753C800.769 339.293 811.129 335.005 818.917 327.216C826.708 319.426 831 309.072 831 298.056V265.357C831 254.34 826.708 243.986 818.917 236.196ZM825.875 298.056C825.875 317.969 809.668 334.169 789.753 334.169H547.579C527.661 334.169 511.458 317.969 511.458 298.056V265.357C511.458 245.443 527.661 229.243 547.579 229.243H789.753C809.668 229.243 825.875 245.443 825.875 265.357V298.056Z" fill="#011121"/>
<path d="M586.354 141.029H583.039V128.028H578.419L578.035 134.744C577.991 135.549 577.907 136.273 577.782 136.916C577.657 137.559 577.476 138.152 577.239 138.695C577.002 139.238 576.705 139.688 576.356 140.043C576.006 140.399 575.575 140.68 575.073 140.877C574.57 141.073 573.993 141.173 573.35 141.173C572.854 141.173 572.454 141.126 572.154 141.029V138.012C572.426 138.071 572.669 138.099 572.891 138.099C573.206 138.099 573.481 138.04 573.718 137.918C573.955 137.796 574.149 137.637 574.296 137.434C574.442 137.232 574.564 136.972 574.664 136.654C574.764 136.336 574.836 136.011 574.882 135.677C574.929 135.343 574.964 134.956 574.985 134.51L575.457 125.195H586.354V141.026V141.029Z" fill="#011121"/>
<path d="M593.237 141.029H590.1V128.927H593.237V136.367H593.433L598.262 128.927H601.399V141.029H598.262V133.502H598.066L593.237 141.029Z" fill="#011121"/>
<path d="M615.415 141.029H612.222V136.192H612.025C611.257 136.872 610.302 137.213 609.16 137.213C607.761 137.213 606.65 136.794 605.817 135.961C604.983 135.128 604.571 134.026 604.571 132.659V128.93H607.765V132.31C607.765 132.975 607.958 133.499 608.345 133.883C608.732 134.267 609.275 134.46 609.968 134.46C610.883 134.46 611.632 134.189 612.219 133.649V128.93H615.412V141.032L615.415 141.029Z" fill="#011121"/>
<path d="M626.805 141.029V136.079H622.019V141.029H618.826V128.927H622.019V133.567H626.805V128.927H629.998V141.029H626.805Z" fill="#011121"/>
<path d="M633.41 141.029V128.927H636.603V132.416H639.007C640.433 132.416 641.57 132.806 642.416 133.583C643.262 134.36 643.683 135.409 643.683 136.725C643.683 138.042 643.262 139.088 642.416 139.862C641.57 140.636 640.433 141.026 639.007 141.026H633.41V141.029ZM638.501 134.897H636.603V138.517H638.501C639.11 138.517 639.594 138.351 639.956 138.017C640.318 137.684 640.499 137.247 640.499 136.707C640.499 136.167 640.315 135.73 639.95 135.396C639.584 135.062 639.101 134.897 638.501 134.897ZM645.019 141.029V128.927H648.212V141.029H645.019Z" fill="#011121"/>
<path d="M654.777 141.029H651.64V128.927H654.777V136.367H654.973L659.802 128.927H662.939V141.029H659.802V133.502H659.606L654.777 141.029ZM652.988 123.3H655.379C655.395 123.893 655.563 124.377 655.885 124.755C656.206 125.132 656.631 125.319 657.158 125.319C657.686 125.319 658.11 125.132 658.438 124.755C658.766 124.377 658.935 123.893 658.947 123.3H661.338C661.338 124.433 660.954 125.357 660.186 126.072C659.418 126.786 658.407 127.142 657.158 127.142C655.91 127.142 654.898 126.786 654.134 126.078C653.369 125.369 652.988 124.442 652.988 123.303V123.3Z" fill="#011121"/>
<path d="M675.925 136.014H675.353V141.029H672.16V128.927H675.353V133.645H675.881L679.536 128.927H683.17L678.528 134.444L683.41 141.026H679.602L675.925 136.011V136.014Z" fill="#011121"/>
<path d="M688.611 141.214C687.44 141.214 686.488 140.88 685.751 140.215C685.015 139.55 684.649 138.667 684.649 137.572C684.649 136.476 685.052 135.624 685.861 135C686.669 134.376 687.827 134.017 689.335 133.93L692.266 133.755V132.769C692.266 132.263 692.091 131.873 691.738 131.602C691.386 131.33 690.883 131.19 690.224 131.19C689.038 131.19 688.311 131.564 688.039 132.31H685.099C685.202 131.19 685.729 130.303 686.685 129.648C687.64 128.993 688.879 128.665 690.399 128.665C691.919 128.665 693.227 129.024 694.104 129.742C694.981 130.459 695.415 131.467 695.415 132.769V141.029H692.322V139.45H692.125C691.81 140.006 691.342 140.44 690.721 140.752C690.1 141.064 689.397 141.217 688.614 141.217L688.611 141.214ZM689.666 138.811C690.405 138.811 691.023 138.601 691.52 138.186C692.016 137.771 692.266 137.253 692.266 136.639V135.749L689.819 135.902C688.458 135.996 687.777 136.482 687.777 137.363C687.777 137.809 687.952 138.161 688.298 138.42C688.645 138.679 689.101 138.811 689.666 138.811Z" fill="#011121"/>
<path d="M700.703 131.67H700.9C701.69 130.125 703.041 129.354 704.949 129.354C706.544 129.354 707.827 129.872 708.801 130.912C709.774 131.951 710.261 133.352 710.261 135.112C710.261 137.022 709.728 138.529 708.66 139.631C707.593 140.733 706.141 141.288 704.303 141.288C702.364 141.288 700.869 140.68 699.814 139.462C698.759 138.245 698.234 136.448 698.234 134.07C698.234 130.968 698.759 128.68 699.808 127.201C700.856 125.722 702.501 124.945 704.739 124.864L706.288 124.807C706.843 124.786 707.387 124.736 707.911 124.655C708.435 124.573 708.822 124.502 709.069 124.439C709.316 124.377 709.444 124.339 709.459 124.324V126.901C709.394 126.939 709.294 126.983 709.163 127.033C709.031 127.082 708.71 127.154 708.198 127.248C707.686 127.341 707.115 127.395 706.488 127.416L705.017 127.46C704.278 127.488 703.647 127.597 703.126 127.785C702.604 127.972 702.177 128.25 701.852 128.618C701.527 128.986 701.275 129.414 701.1 129.897C700.925 130.381 700.794 130.968 700.703 131.664V131.67ZM704.249 138.679C705.114 138.679 705.785 138.376 706.263 137.774C706.74 137.172 706.981 136.314 706.981 135.203C706.981 134.092 706.74 133.315 706.263 132.722C705.785 132.129 705.111 131.832 704.249 131.832C703.388 131.832 702.714 132.129 702.236 132.722C701.758 133.315 701.518 134.142 701.518 135.203C701.518 136.264 701.755 137.172 702.233 137.774C702.711 138.376 703.382 138.679 704.253 138.679H704.249Z" fill="#011121"/>
<path d="M716.276 141.029H713.139V128.927H716.276V136.367H716.472L721.301 128.927H724.438V141.029H721.301V133.502H721.105L716.276 141.029Z" fill="#011121"/>
<path d="M735.842 141.029V136.079H731.057V141.029H727.863V128.927H731.057V133.567H735.842V128.927H739.035V141.029H735.842Z" fill="#011121"/>
<path d="M750.272 137.584H753.247C753.007 138.733 752.392 139.638 751.408 140.299C750.425 140.961 749.192 141.292 747.716 141.292C745.871 141.292 744.435 140.742 743.402 139.641C742.369 138.539 741.854 137.007 741.854 135.038C741.854 133.068 742.372 131.514 743.411 130.375C744.451 129.236 745.871 128.665 747.669 128.665C749.467 128.665 750.846 129.202 751.845 130.278C752.844 131.355 753.344 132.853 753.344 134.775V135.752H745.037V135.918C745.059 136.816 745.318 137.528 745.812 138.052C746.305 138.576 746.97 138.836 747.803 138.836C748.434 138.836 748.958 138.726 749.382 138.511C749.807 138.296 750.104 137.987 750.272 137.584ZM747.681 131.112C746.942 131.112 746.333 131.349 745.855 131.826C745.378 132.304 745.106 132.931 745.05 133.714H750.207C750.169 132.909 749.926 132.276 749.476 131.811C749.027 131.346 748.427 131.115 747.681 131.115V131.112Z" fill="#011121"/>
<path d="M765.174 128.927V131.439H761.553V141.029H758.36V131.439H754.739V128.927H765.174Z" fill="#011121"/>
<path d="M632.228 290.029C629.931 290.029 628.117 289.286 626.79 287.798C625.464 286.309 624.799 284.278 624.799 281.703C624.799 279.128 625.464 277.1 626.79 275.614C628.117 274.129 629.931 273.386 632.228 273.386C634.101 273.386 635.683 273.945 636.976 275.059C638.268 276.173 638.973 277.596 639.098 279.322H635.871C635.708 278.407 635.299 277.677 634.635 277.128C633.97 276.579 633.171 276.304 632.225 276.304C630.982 276.304 629.996 276.788 629.272 277.752C628.548 278.716 628.186 280.033 628.186 281.703C628.186 283.373 628.548 284.69 629.272 285.657C629.996 286.624 630.982 287.111 632.234 287.111C633.186 287.111 633.988 286.852 634.647 286.331C635.306 285.81 635.715 285.117 635.877 284.246H639.105C638.964 285.957 638.262 287.348 636.991 288.422C635.721 289.495 634.132 290.029 632.222 290.029H632.228Z" fill="#011121"/>
<path d="M652.771 281.787H649.786C649.677 281.194 649.415 280.729 649.003 280.389C648.591 280.049 648.051 279.88 647.383 279.88C646.518 279.88 645.857 280.196 645.391 280.823C644.926 281.45 644.695 282.358 644.695 283.544C644.695 284.73 644.926 285.663 645.391 286.303C645.857 286.943 646.521 287.264 647.383 287.264C648.042 287.264 648.579 287.108 648.991 286.793C649.403 286.478 649.668 286.025 649.786 285.432H652.771C652.64 286.799 652.096 287.885 651.147 288.684C650.199 289.483 648.941 289.885 647.383 289.885C645.494 289.885 644.037 289.336 643.01 288.235C641.983 287.133 641.468 285.57 641.468 283.544C641.468 281.519 641.98 279.983 643.004 278.891C644.027 277.799 645.488 277.256 647.383 277.256C648.962 277.256 650.224 277.662 651.163 278.473C652.103 279.284 652.64 280.389 652.771 281.787Z" fill="#011121"/>
<path d="M655.479 289.623V277.521H658.673V281.01H661.076C662.503 281.01 663.639 281.4 664.485 282.177C665.331 282.954 665.752 284.003 665.752 285.32C665.752 286.637 665.331 287.682 664.485 288.456C663.639 289.23 662.503 289.62 661.076 289.62H655.479V289.623ZM660.571 283.491H658.673V287.111H660.571C661.179 287.111 661.663 286.946 662.025 286.612C662.387 286.278 662.568 285.841 662.568 285.301C662.568 284.761 662.384 284.324 662.019 283.99C661.654 283.656 661.17 283.491 660.571 283.491ZM667.088 289.623V277.521H670.282V289.623H667.088Z" fill="#011121"/>
<path d="M677.627 283.806C677.577 284.749 677.471 285.57 677.308 286.266C677.146 286.962 676.909 287.579 676.593 288.126C676.278 288.672 675.863 289.081 675.348 289.355C674.833 289.63 674.212 289.767 673.488 289.767C673.091 289.767 672.751 289.72 672.467 289.624V286.815C672.673 286.865 672.901 286.893 673.157 286.893C673.441 286.893 673.684 286.812 673.887 286.653C674.09 286.493 674.249 286.256 674.371 285.944C674.493 285.632 674.583 285.292 674.646 284.917C674.708 284.543 674.755 284.103 674.783 283.591L675.133 277.524H684.241V289.627H681.048V280.037H677.876L677.623 283.81L677.627 283.806Z" fill="#011121"/>
<path d="M691.421 284.608H690.85V289.623H687.656V277.521H690.85V282.24H691.377L695.032 277.521H698.666L694.024 283.038L698.906 289.62H695.098L691.421 284.605V284.608Z" fill="#011121"/>
<path d="M704.369 289.623H701.231V277.521H704.369V284.961H704.565L709.394 277.521H712.531V289.623H709.394V282.096H709.197L704.369 289.623Z" fill="#011121"/>
<path d="M671.227 74.7075H666.102V79.8318H671.227V74.7075Z" fill="#011121"/>
<path d="M671.227 184.76H666.102V229.243H671.227V184.76Z" fill="#011121"/>
<path d="M671.227 334.169H666.102V339.293H671.227V334.169Z" fill="#011121"/>
<path d="M675.913 214.749L665.04 225.619L668.664 229.243L679.537 218.372L675.913 214.749Z" fill="#011121"/>
<path d="M661.416 214.749L657.792 218.372L668.665 229.242L672.289 225.619L661.416 214.749Z" fill="#011121"/>
<path d="M500.583 120.238L496.959 123.861L507.832 134.732L511.456 131.108L500.583 120.238Z" fill="#011121"/>
<path d="M507.834 127.486L496.961 138.356L500.585 141.98L511.458 131.11L507.834 127.486Z" fill="#011121"/>
<path d="M508.676 133.608C477.571 133.608 448.304 129.598 421.693 121.684C400.367 115.342 380.69 106.498 363.203 95.3947C333.33 76.4237 320.367 57.6588 319.83 56.8692L323.96 54.0605C324.088 54.2478 337.026 72.916 366.128 91.3377C392.991 108.343 439.529 128.615 508.676 128.615V133.608Z" fill="#011121"/>
</g>
<defs>
<clipPath id="clip0_93_78">
<rect width="831" height="414" fill="white"/>
</clipPath>
</defs>
</svg>
