<svg width="702" height="70" viewBox="0 0 702 70" fill="none" xmlns="http://www.w3.org/2000/svg">
<g clip-path="url(#clip0_93_214)">
<path d="M211.825 17.7475C209.266 18.2765 206.621 18.5666 204.146 19.3516C187.013 24.8294 171.348 33.3789 155.972 42.5256C147.337 47.6622 138.805 53.0035 130.29 58.3789C124.3 62.1502 119.095 60.256 113.686 56.2799C130.034 41.7919 149.078 30.6144 164.505 13.3106C161.894 12.6451 160.068 11.5529 158.532 11.8601C145.034 14.5564 131.245 16.4676 118.208 20.6485C105.256 24.8123 92.218 27.5768 78.8391 29.1297C70.9722 30.0512 63.0542 30.4608 55.1702 31.2628C52.5934 31.5188 50.0507 32.3209 47.491 32.8669C47.491 33.2594 47.5081 33.6349 47.5251 34.0274C48.5661 34.1639 49.59 34.3345 50.6309 34.4028C63.549 35.3413 76.4842 36.0581 89.078 39.4369C91.6548 40.1366 94.2487 40.9045 96.6378 42.0308C101.041 44.0956 101.587 48.7884 97.3033 50.9557C91.3647 53.9762 85.1019 56.7065 78.6685 58.396C60.7675 63.0888 42.5251 65.4949 24.0098 63.7543C18.8733 63.2765 13.6344 62.0478 8.82207 60.1878C2.67873 57.8157 2.0132 53.669 6.92787 49.1809C10.8528 45.5973 15.4603 42.7645 19.7606 39.6076C20.8528 38.8055 21.9791 38.0547 23.6685 36.8772C20.392 36.3823 17.8664 36.0751 15.375 35.6144C14.1292 35.3925 12.8323 35.0683 11.7231 34.4881C11.1088 34.1639 10.5456 33.2253 10.4944 32.5086C10.4603 32.0308 11.2794 31.3652 11.8596 31.0239C12.491 30.6656 13.276 30.512 13.9927 30.4437C16.5524 30.1878 19.1122 29.9147 21.6719 29.8294C31.3477 29.5393 40.6309 28.5325 49.334 23.2765C57.9347 18.0888 67.6617 15.785 78.2248 16.5188C72.2692 19.7953 66.3135 23.0717 60.3579 26.3482C60.4091 26.5871 60.4432 26.826 60.4944 27.0478C62.5081 26.9284 64.5388 26.8772 66.5525 26.6724C75.5968 25.8021 84.6583 24.9489 93.6856 23.9079C94.7606 23.7884 95.8016 22.611 96.706 21.7407C98.4466 20.0512 99.9825 18.14 101.774 16.5018C103.174 15.2219 104.829 14.2151 107.167 12.5256C103.942 11.9796 101.535 11.3482 99.0951 11.1775C81.6036 10 64.2316 11.5018 46.9279 14.0103C42.6617 14.6246 38.3784 15.1536 34.0439 16.3823C35.119 16.8942 36.177 17.4062 38.1565 18.3618C33.7026 19.1297 30.1873 19.8635 26.6548 20.3413C19.7606 21.2628 12.8664 22.0649 5.95518 22.8499C4.69238 22.9864 3.37839 22.9352 2.11559 22.7987C-0.256426 22.5598 -0.546529 21.2628 0.733335 19.5222C1.34767 18.669 2.20091 17.9693 3.02002 17.3038C11.4842 10.4608 21.0746 6.48469 31.9791 5.52906C47.218 4.198 62.4228 2.47445 77.6787 1.31404C89.2146 0.443731 100.785 0.648509 112.235 2.81574C113.395 3.03759 114.675 3.10585 115.631 3.68605C120.631 6.75772 125.58 5.85329 130.597 3.83964C130.989 3.68605 131.416 3.58366 131.825 3.53247C132.013 3.49834 132.218 3.63486 132.764 3.78844C130.102 5.10243 127.679 6.31404 125.256 7.50858C125.307 7.71336 125.375 7.91813 125.426 8.12291C127.32 7.76455 129.215 7.40619 131.092 7.03076C143.157 4.70994 155.17 2.16728 167.303 0.221888C170.989 -0.375382 175 0.341341 178.737 1.09219C183.174 1.9625 184.283 5.03417 181.143 8.25943C175.767 13.7543 170.068 18.942 164.197 23.9079C156.04 30.8192 147.61 37.4062 139.59 44.727C140.529 44.2663 141.501 43.8738 142.406 43.3618C164.812 30.6144 187.406 18.2082 211.587 9.02735C215.87 7.40619 220.324 6.19458 224.778 5.05124C228.976 3.97615 232.662 5.20482 235.409 8.61779C237.235 10.8874 237.457 13.4471 235.324 15.5973C233.071 17.8669 230.699 20.0683 228.071 21.8942C219.812 27.628 211.228 32.9352 203.139 38.8908C198.361 42.4062 193.959 46.5529 189.914 50.9215C186.757 54.3516 187.935 57.0137 192.593 57.1843C196.348 57.3209 200.307 56.843 203.89 55.7338C210.699 53.6178 217.32 50.8704 224.01 48.3789C224.3 48.6007 224.59 48.8055 224.88 49.0274C224.198 50.1536 223.788 51.8601 222.798 52.3379C210.17 58.413 197.559 64.6076 183.686 67.2867C179.914 68.0035 175.785 67.7646 171.979 67.0478C166.825 66.0922 165.102 62.4062 168.003 58.0205C171.092 53.3618 174.709 48.7543 179.01 45.239C188.668 37.3038 198.873 30.0171 208.89 22.5086C210.238 21.5018 211.723 20.6826 213.157 19.7782C212.713 19.1127 212.286 18.4471 211.843 17.7987L211.825 17.7475ZM43.0712 37.082C41.1429 37.8499 38.9415 38.5154 36.9449 39.5905C33.1907 41.6212 29.4364 43.7031 25.9381 46.1263C23.1907 48.0376 23.4125 50 26.3477 51.4676C28.3272 52.4574 30.5115 53.3618 32.6617 53.5325C38.7026 53.9932 44.846 54.8123 50.8016 54.1127C59.9825 53.0376 69.061 50.9557 78.1054 48.942C80.0166 48.5154 82.9347 46.57 82.9859 45.2219C83.1054 42.3721 79.9654 41.7065 77.5593 41.3823C66.2282 39.8977 54.8972 38.5495 43.0542 37.082H43.0712Z" fill="black"/>
<path d="M417.014 31.4165C424.949 28.5837 432.782 25.4438 440.836 23.0547C445.683 21.6213 450.854 21.0581 455.922 20.6657C459.181 20.4097 460.256 22.1674 458.891 25.1708C458.004 27.1162 456.536 29.1981 454.744 30.2732C447.236 34.7783 439.522 38.908 431.877 43.1742C431.331 43.4814 430.751 43.7373 430.12 44.0445C432.935 45.3756 436.553 45.8363 442.492 44.437C448.925 42.9353 455.205 40.8022 461.502 38.7715C462.867 38.3278 464.284 37.4063 465.188 36.2971C472.799 26.9797 483.413 22.9353 494.522 20.3926C500.683 18.9762 507.236 19.181 513.635 19.0445C515.495 19.0104 518.976 18.908 516.843 22.7817C522.833 25.5633 523.55 27.9012 519.796 33.2936C518.243 35.5121 516.161 37.3721 514.301 39.3858C518.618 41.4336 529.693 37.9865 534.505 33.0889C528.584 29.8124 528.481 28.2424 534.164 23.9421C539.505 19.8977 545.342 17.0308 552.714 17.1674C551.963 18.4984 551.417 19.4711 551.127 19.9831C557.799 19.9831 564.591 19.9831 571.383 19.9831C573.089 19.9831 574.813 19.7612 576.519 19.7612C579.232 19.7783 581.297 21.2971 581.485 23.8227C581.57 25.0513 579.881 26.809 578.567 27.6793C574.13 30.6315 569.488 33.2766 564.983 36.1264C564.096 36.6896 563.396 37.5599 562.714 38.396C560.802 40.768 561.348 42.4063 564.454 42.6281C567.082 42.8158 569.813 42.6281 572.389 42.065C585.768 39.1298 597.714 33.0547 608.72 25.0172C609.045 24.7783 609.301 24.4199 609.574 24.1128C609.625 24.0616 609.557 23.925 609.505 23.6179H593.021C593.874 22.5257 594.522 21.4165 595.41 20.6145C599.983 16.4848 605.137 13.6691 611.502 13.6179C613.106 13.6179 614.727 13.2254 616.314 13.3278C622.492 13.7544 627.918 12.4745 633.038 8.53255C638.106 4.6247 644.301 4.91481 650.307 5.76805C650.427 6.04109 650.529 6.33119 650.649 6.60423C647.628 8.63494 644.608 10.6657 640.802 13.2254C644.249 13.5837 646.741 13.8227 649.215 14.0786C649.335 14.3005 649.471 14.5394 649.591 14.7612C647.782 16.0752 645.871 17.2698 644.198 18.7373C639.147 23.1742 633.413 24.7442 626.707 23.908C624.676 23.652 622.082 24.71 620.359 25.9899C616.929 28.5155 613.823 31.536 610.768 34.5223C608.482 36.7578 605.563 39.6076 607.389 42.7646C609.266 46.024 613.277 45.1878 616.519 44.3005C629.028 40.8704 641.058 36.1776 652.526 30.0513C657.236 27.5257 662.15 25.3585 666.775 22.6964C669.488 21.1264 671.98 19.0786 674.284 16.9455C678.123 13.4131 682.543 14.2663 686.502 14.437C688.072 17.7646 689.386 20.6657 690.785 23.5326C692.884 27.867 692.645 31.4336 688.635 33.9933C683.379 37.3551 677.543 39.8124 671.929 42.6281C670.888 43.1401 669.761 43.4814 668.533 43.9421C671.69 45.3244 676.946 45.0001 684.761 42.7476C690.069 41.2117 695.29 39.4029 701.263 38.2425C700.649 39.1981 700.273 40.6486 699.403 41.0411C688.191 46.1264 676.86 50.8363 664.386 51.9114C656.69 52.5769 649.403 51.2117 642.765 47.3551C640.512 46.0411 638.874 43.652 636.502 41.2971C634.83 42.065 632.338 43.2083 629.847 44.3517C620.717 48.5837 611.485 52.6622 601.348 53.6691C598.482 53.9592 595.359 53.3448 592.594 52.4233C588.959 51.2117 588.243 48.7032 589.966 45.3073C590.598 44.0786 591.383 42.9182 592.133 41.7407C592.867 40.5803 593.669 39.4541 594.881 37.6281C593.362 38.1742 592.509 38.4131 591.724 38.7544C583.584 42.2698 575.461 45.8363 567.304 49.3346C562.697 51.3141 557.953 52.3039 552.918 51.1776C550.239 50.5803 547.97 49.3858 547.27 46.6042C546.536 43.7544 547.697 41.28 549.932 39.4711C554.011 36.1776 558.174 33.0206 562.219 29.4711C554.898 29.71 547.526 28.9421 540.99 33.7203C531.912 40.3926 521.724 44.164 510.359 44.7442C507.901 44.8636 505.495 46.1435 503.055 46.8602C497.56 48.4814 492.15 50.9046 486.536 51.536C477.543 52.5599 469.505 50.1025 464.54 41.1776C461.826 42.2356 459.215 43.396 456.502 44.2493C448.174 46.8602 439.932 50.0684 431.383 51.6213C425.785 52.6452 419.727 51.28 413.874 50.8534C408.976 50.495 404.079 49.7783 399.181 49.6247C397.748 49.5735 395.956 50.6315 394.881 51.7237C389.727 56.8602 384.796 62.2015 379.727 67.4063C377.543 69.6418 374.744 70.1367 371.741 69.9148C369.915 69.7783 368.72 68.8568 369.181 67.065C369.71 64.966 370.222 62.4575 371.656 61.0752C376.007 56.8602 380.734 53.0035 385.444 49.164C395.12 41.28 404.898 33.4984 414.625 25.6827C414.352 25.2902 414.079 24.8977 413.806 24.5052C403.738 29.9489 393.669 35.3926 383.584 40.8534C382.526 38.2936 382.714 37.9353 385.376 36.3994C395.649 30.4609 405.939 24.5223 416.178 18.5326C419.693 16.4848 423.072 14.2151 426.587 12.1844C432.935 8.53255 439.778 7.57692 446.929 8.61788C447.099 8.90798 447.27 9.21515 447.441 9.50525C445.154 11.0923 443.038 12.9865 440.58 14.2322C432.509 18.3107 424.949 23.1059 418.345 29.3175C417.816 29.8124 417.287 30.3244 416.758 30.8192L417.099 31.3824L417.014 31.4165ZM506.553 26.3653C506.331 25.9899 506.127 25.6145 505.905 25.239C498.174 28.1913 490.359 30.9728 482.765 34.2493C480.922 35.0343 479.437 37.2356 478.379 39.1298C476.229 42.9524 477.116 44.5394 481.434 45.222C487.782 46.2117 493.635 44.4029 499.642 42.0479C496.075 34.1981 502.645 30.8875 506.553 26.3824V26.3653ZM672.441 24.8977C664.028 28.908 656.195 32.6452 648.362 36.3824C651.707 37.9012 654.949 39.0104 657.833 40.768C660.188 42.2186 662.27 42.5599 664.744 41.4848C666.4 40.768 668.14 40.239 669.796 39.4882C673.993 37.5599 675.103 35.3414 674.113 30.768C673.703 28.925 673.089 27.1162 672.458 24.8977H672.441ZM406.963 41.8773C412.509 42.2868 417.287 42.6622 422.065 42.9865C422.679 43.0206 423.396 42.8841 423.925 42.5769C428.755 39.8295 433.652 37.1844 438.277 34.1298C439.744 33.1571 440.444 31.0581 441.502 29.4711C439.574 29.181 437.543 28.3448 435.734 28.6861C425.256 30.5974 416.246 35.8192 406.963 41.8943V41.8773Z" fill="black"/>
<path d="M359.437 43.9761C352.508 39.4368 345.546 37.9692 338.43 36.9283C323.618 34.761 308.771 32.8839 294.027 30.3754C285.171 28.8737 283.601 24.744 289.095 17.5085C291.365 14.5221 294.863 11.9453 298.345 10.529C309.915 5.78494 322.287 4.21497 334.624 2.93511C350.205 1.31395 365.836 1.00678 381.467 2.23545C384.88 2.50849 388.293 2.90098 391.655 3.51531C394.88 4.11258 395.973 6.12624 394.198 8.82248C392.935 10.7337 390.938 12.918 388.874 13.4471C378.737 16.0409 368.464 18.1058 358.242 20.3583C357.969 20.4095 357.662 20.2901 357.372 20.2559C357.27 19.9317 357.15 19.6075 357.048 19.2832C362.338 17.4061 367.645 15.529 373.498 13.4641C372.389 13.2081 371.775 12.9351 371.16 12.9351C352.833 12.6962 334.539 13.2935 316.519 17.0307C312.355 17.901 308.259 19.232 304.232 20.6484C303.174 21.0238 302.525 22.5085 301.689 23.4812C302.662 24.1638 303.584 25.2901 304.642 25.4436C314.676 27.0136 324.795 28.1228 334.778 29.9658C343.788 31.6382 352.679 33.9931 361.57 36.2457C363.805 36.8088 365.956 37.9692 367.969 39.1467C373.072 42.116 373.481 46.1092 368.874 49.8976C366.433 51.9112 363.601 53.5836 360.717 54.8976C352.321 58.7542 343.191 59.5221 334.164 60.5631C314.437 62.8498 294.642 63.43 274.829 61.8942C270.068 61.5187 265.307 60.4778 260.717 59.1808C257.287 58.2081 257.082 56.3822 259.573 53.8054C265.068 48.1228 272.014 47.2184 280.171 47.918C278.259 48.703 276.962 49.2491 275.665 49.7781C275.734 50.1194 275.785 50.4436 275.853 50.7849C303.515 50.0853 331.502 53.5153 359.437 43.9761Z" fill="black"/>
</g>
<defs>
<clipPath id="clip0_93_214">
<rect width="701.263" height="70" fill="white"/>
</clipPath>
</defs>
</svg>
