<svg width="485" height="70" viewBox="0 0 485 70" fill="none" xmlns="http://www.w3.org/2000/svg">
<g clip-path="url(#clip0_93_218)">
<path fill-rule="evenodd" clip-rule="evenodd" d="M1.545 67.0214C0.579672 67.6006 -1.46131 69.6691 1.6829 69.6691L89.3622 69.5037C105.745 69.5037 123.369 63.7944 132.333 50.997C137.711 43.3019 152.908 21.127 157.707 14.3145C160.327 10.5911 163.03 6.92287 167.581 4.10964C167.581 4.10964 168.74 3.36495 169.595 2.84092C171.332 1.76527 172.435 0.413811 168.767 0.413811H132.112L94.8232 55.2444C93.6924 56.7889 91.4859 57.0923 89.9414 55.9891C88.3693 54.8583 88.0659 52.707 89.1967 51.1624L123.728 0.38623H95.6506L58.3614 55.2168C57.2306 56.7613 55.0517 57.0647 53.4796 55.9615C51.9075 54.8307 51.5765 52.6794 52.7349 51.1349L87.266 0.38623H81.1155C64.7325 0.38623 47.5773 4.82674 38.6136 17.6518C33.2353 25.3468 18.0383 47.5218 13.2392 54.3342C10.7018 57.9473 8.46777 61.4225 4.02727 65.0356C4.02727 65.0356 2.62065 66.3043 1.51742 67.0214H1.545Z" fill="black"/>
<path fill-rule="evenodd" clip-rule="evenodd" d="M234.795 27.0842L249.275 0.413574H273.822L235.016 69.7516H212.896L211.931 44.4876L197.975 69.7516H174.862L172.353 0.413574H197.092L198.389 27.0842L212.869 0.413574H234.051L234.795 27.0842Z" fill="black"/>
<path fill-rule="evenodd" clip-rule="evenodd" d="M334.003 38.8612C326.694 61.2844 306.257 72.0685 285.157 69.669C262.789 67.1315 252.005 50.5831 259.314 30.2285C266.678 9.76352 285.599 -2.17896 307.774 0.330893C333.203 3.19929 339.685 21.4853 334.003 38.8612ZM282.868 31.3868C278.179 39.4404 278.428 50.8313 287.447 52.6792C295.086 54.2789 302.754 49.9763 308.491 40.323C313.814 31.3593 313.4 21.4853 304.023 19.0031C295.252 16.6863 288.577 21.5681 282.896 31.3868H282.868Z" fill="black"/>
<path fill-rule="evenodd" clip-rule="evenodd" d="M365.225 17.3761H375.733C379.539 17.3761 381.111 20.7685 379.815 23.9955C378.188 27.9947 376.671 29.8977 371.099 29.9529H361.75L365.225 17.3761ZM396.115 52.183C396.722 46.7496 394.24 41.6471 392.585 39.1373C398.294 35.9931 404.334 30.5045 406.017 22.3682C408.72 9.26732 402.128 0.41389 385.11 0.441471H346.084L326.694 69.7795H350.69L357.281 46.0601H364.259C370.493 46.0601 372.671 50.5282 372.12 56.8166C371.816 60.2642 371.292 64.1531 371.017 65.9182C370.741 67.8213 372.147 69.7795 374.382 69.7795H396.529C395.564 67.9868 394.571 64.4013 394.846 61.6708C394.957 60.6779 395.867 54.4446 396.115 52.183Z" fill="black"/>
<path fill-rule="evenodd" clip-rule="evenodd" d="M416.111 0.413574H439.252L434.618 16.7138L454.421 0.413574H482.609L452.38 27.1393L470.887 69.7516H446.368L434.728 42.9707L425.737 50.914L420.58 69.7516H397.577L416.111 0.413574Z" fill="black"/>
<path fill-rule="evenodd" clip-rule="evenodd" d="M471.41 63.2705C471.41 59.6023 474.389 56.6235 478.057 56.6235C481.725 56.6235 484.704 59.6023 484.704 63.2705C484.704 66.9387 481.725 69.9175 478.057 69.9175C474.389 69.9175 471.41 66.9387 471.41 63.2705ZM478.057 68.8694C481.146 68.8694 483.656 66.3595 483.656 63.2705C483.656 60.1815 481.146 57.6716 478.057 57.6716C474.968 57.6716 472.458 60.1815 472.458 63.2705C472.458 66.3595 474.968 68.8694 478.057 68.8694Z" fill="black"/>
<path fill-rule="evenodd" clip-rule="evenodd" d="M474.996 59.2158H479.05C481.202 59.2158 481.588 60.7879 481.588 61.4774C481.588 62.36 481.119 63.1323 480.347 63.4081C481.009 63.6839 481.367 63.9597 481.367 65.4491C481.367 66.635 481.367 66.9109 481.726 67.0488V67.2694H479.878C479.768 66.9109 479.712 66.4696 479.712 65.6421C479.712 64.5389 479.657 64.1252 478.416 64.1252H476.651V67.2694H475.024V59.2158H474.996ZM478.609 62.7462C479.464 62.7462 479.905 62.4704 479.905 61.6429C479.905 61.2292 479.712 60.5949 478.72 60.5949H476.623V62.7462H478.609Z" fill="black"/>
</g>
<defs>
<clipPath id="clip0_93_218">
<rect width="484.732" height="70" fill="white"/>
</clipPath>
</defs>
</svg>
