<svg width="455" height="70" viewBox="0 0 455 70" fill="none" xmlns="http://www.w3.org/2000/svg">
<g clip-path="url(#clip0_93_189)">
<path d="M1.95801 69.1015L16.4216 52.3921L77.3661 23.465L43.5879 23.6447L62.6331 1.04199H173.634L79.8636 45.6904H132.489L112.384 69.1015H1.95801Z" fill="black"/>
<path d="M169.663 1.94027L75.8928 46.5886H130.531L111.971 68.2031H3.93442L16.9786 53.1287L81.3908 22.5306L45.5104 22.7283L63.0463 1.94027H169.663ZM177.623 0.143555H62.2198L61.6808 0.790372L44.1629 21.5784L41.6475 24.5609H45.5463L73.3415 24.3812L16.2239 51.4937L15.8826 51.6554L15.631 51.9428L2.58688 67.0173L0.0175781 69.9818H112.815L113.354 69.353L131.914 47.7385L134.466 44.7739H83.8703L170.436 3.57528L177.623 0.161522V0.143555Z" fill="white"/>
<path d="M185.097 69.1018C175.934 69.1018 170.652 65.9037 170.418 65.7779L169.502 65.2209L181.342 52.033L181.899 52.2127C181.899 52.2127 188.709 54.4586 195.572 54.4586C199.759 54.4586 203.101 53.6501 205.526 52.033C201.789 50.4519 194.225 46.3914 193.937 39.4021C193.901 38.4319 194.063 37.4078 194.404 36.3297C195.518 32.8082 199.956 24.184 217.133 20.1234C221.948 18.9915 227.23 18.4165 232.836 18.4165H253.355L238.963 34.4252L238.37 34.1557C234.848 32.5566 231.219 31.7481 227.536 31.7481C224.643 31.7481 221.768 32.2512 219.001 33.2214C218.337 33.455 218.247 34.0479 218.247 34.2456C218.229 34.6408 218.391 35.1439 218.93 35.3955C225.398 38.4678 228.165 41.7918 229.333 44.0556C230.213 45.7445 230.393 47.7209 229.818 49.6254C226.242 61.4658 210.036 66.1732 200.693 67.916C196.525 68.6886 192.123 69.1018 187.631 69.1018H185.079H185.097Z" fill="black"/>
<path d="M251.361 19.3149L238.748 33.3293C234.705 31.4786 230.896 30.8318 227.536 30.8318C223.997 30.8318 220.96 31.5505 218.696 32.359C216.953 32.9699 216.882 35.3955 218.535 36.186C224.715 39.1147 227.392 42.241 228.542 44.4509C229.333 45.9602 229.459 47.703 228.956 49.3559C225.578 60.5495 210.395 65.185 200.531 67.0356C196.273 67.8262 191.961 68.2035 187.631 68.2035H185.062C176.042 68.2035 170.85 65.0053 170.85 65.0053L179.151 55.7702L181.001 53.704L181.576 53.0572C181.576 53.0572 188.44 55.357 195.537 55.357C199.471 55.357 203.478 54.6563 206.425 52.4822C206.802 52.1948 206.748 51.6018 206.299 51.4222C203.406 50.2543 195.052 46.3015 194.782 39.3842C194.746 38.4499 194.926 37.5156 195.213 36.6172C196.381 32.934 200.783 24.9027 217.295 21.0218C222.362 19.818 227.572 19.3328 232.783 19.3328H251.289M255.313 17.5361H232.783C227.105 17.5361 221.751 18.1111 216.882 19.2789C199.885 23.2856 194.944 31.5325 193.488 36.0962C193.111 37.2641 192.931 38.396 192.985 39.474C193.237 46.032 199.328 50.1106 203.478 52.1588C201.376 53.1111 198.717 53.5962 195.519 53.5962C188.799 53.5962 182.187 51.4222 182.115 51.4042L181.001 51.0269L180.211 51.9073L179.636 52.5541L177.785 54.6203L169.484 63.8554L168.047 65.4545L169.88 66.5864C170.113 66.7302 175.611 70.0541 185.026 70.0541H187.595C192.141 70.0541 196.597 69.6588 200.819 68.8683C212.462 66.6942 227.105 61.6275 230.626 49.9489C231.273 47.8108 231.076 45.5828 230.087 43.6963C228.848 41.3246 225.973 37.821 219.271 34.6409C219.163 34.587 219.092 34.4792 219.11 34.3534C219.11 34.1917 219.217 34.1557 219.271 34.1378C221.948 33.1855 224.715 32.7184 227.518 32.7184C231.058 32.7184 234.579 33.5089 237.975 35.0541L239.179 35.5931L240.059 34.6049L252.672 20.5905L255.367 17.59L255.313 17.5361Z" fill="white"/>
<path d="M269.777 69.1018L315.324 18.4165H338.879L293.332 69.1018H269.777Z" fill="black"/>
<path d="M336.866 19.3148L292.919 68.2034H271.789L315.719 19.3148H336.866ZM340.891 17.5181H314.928L314.389 18.111L270.46 66.9996L267.765 70.0001H293.727L294.266 69.4072L338.214 20.5186L340.909 17.5181H340.891Z" fill="white"/>
<path d="M336.022 69.1018V68.2035L340.477 44.7743L318.611 69.1018H297.141L342.687 18.4165H359.343L359.558 19.0094C359.558 19.0094 359.954 20.1234 360.385 22.0459C361.158 25.4237 362.2 31.9458 361.211 39.8333L380.454 18.4165H402.302L356.756 69.1018H336.022Z" fill="black"/>
<path d="M400.29 19.3147L356.36 68.2033H336.92L341.951 41.7736L318.198 68.2033H299.153L343.083 19.3147H358.696C358.696 19.3147 359.073 20.3568 359.505 22.2433C360.403 26.1781 361.517 33.7064 359.846 42.6899L380.85 19.3147H400.29ZM404.315 17.518H380.041L379.502 18.1109L362.361 37.192C362.846 30.4004 361.948 24.8845 361.247 21.8301C360.798 19.8717 360.403 18.7397 360.385 18.7038L359.954 17.518H342.274L341.735 18.1109L297.805 66.9995L295.11 70H318.989L319.528 69.4071L338.968 47.7746L335.141 67.8619L335.105 68.0236V69.982H336.902H356.342H357.151L357.69 69.3891L401.62 20.5005L404.315 17.5V17.518Z" fill="white"/>
<path d="M115.241 69.1018L160.788 18.4165H206.622L194.404 32.0176H171.245L166.879 36.8688H190.038L178.216 50.0207H155.056L150.69 54.8898H173.85L161.075 69.1018H115.241Z" fill="black"/>
<path d="M204.609 19.3147L194.009 31.1011H170.849L164.866 37.7669H188.026L177.82 49.1222H154.661L149.54 54.8178V55.77H171.855L160.68 68.1853H117.271L161.219 19.2967H204.627M208.652 17.5H160.41L159.871 18.0929L115.924 66.9815L113.229 69.982H161.47L162.009 69.3891L173.185 56.9738L175.88 53.9733H152.72L155.469 50.9189H178.629L179.168 50.326L189.373 38.9707L192.068 35.9702H168.909L171.658 32.8978H194.817L195.356 32.3049L205.957 20.5185L208.652 17.518V17.5Z" fill="white"/>
<path d="M227.104 69.1018L259.481 33.0957L243.688 33.0058L256.786 18.4165H312.323L298.919 33.3292L283.324 33.2394L251.073 69.1018H227.104Z" fill="black"/>
<path d="M310.31 19.3149L298.524 32.4309L282.91 32.3411L250.659 68.2035H229.117L261.476 32.2153L245.683 32.1255L257.182 19.3328H310.292M314.317 17.5361H256.373L255.834 18.129L244.335 30.9217L241.658 33.9042H245.665L257.451 33.994L227.769 67.0177L225.074 70.0182H251.45L251.989 69.4253L283.701 34.1557L298.506 34.2456H299.314L299.853 33.6527L311.64 20.5366L314.335 17.5361H314.317Z" fill="white"/>
<path d="M181.217 1.04217L267.028 1.00624L272.849 0.988273L449.143 0.898438L449.179 2.69515L264.62 12.0021L258.512 12.2896L149.235 17.8055L181.217 1.04217Z" fill="#E31F26"/>
<path d="M449.143 1.79671L320.229 8.30082L264.585 11.1037L258.494 11.4091L164.058 16.1704L153.314 16.7094L181.469 1.94045L267.046 1.90452H272.885L326.032 1.86858L449.161 1.79671M449.161 0L326.032 0.0718686L272.885 0.107803H267.046L181.469 0.161704H181.019L180.624 0.359343L152.47 15.1283L145.211 18.9374L153.386 18.5241L164.094 17.9851H164.148L258.584 13.2238L264.674 12.9184L320.319 10.1155L449.233 3.6114L449.143 0.0179671L449.161 0Z" fill="white"/>
<path d="M395.331 69.1017C386.635 68.8502 380.544 65.9216 378.154 60.8369C375.729 55.6803 377.454 49.0324 382.97 42.0971C388.36 35.3415 396.768 29.0709 406.65 24.4354C412.687 21.6146 419.012 19.5304 424.941 18.4524C428.301 17.8415 431.517 17.5181 434.517 17.5181C437.518 17.5181 440.321 17.8415 442.746 18.4703C447.705 19.746 451.209 22.2794 452.862 25.8009C457.731 36.2219 444.956 52.554 424.348 62.2024C415.436 66.3707 406.111 68.8143 398.044 69.1017H395.295H395.331ZM428.714 31.1731C424.797 31.1731 418.401 34.0658 412.436 38.5396C403.47 45.2414 399.176 52.536 400.937 54.8718C401.512 55.6264 402.679 55.7881 403.578 55.7881C407.495 55.7881 413.891 52.8954 419.856 48.4216C428.804 41.7018 433.098 34.4252 431.355 32.0894C430.78 31.3348 429.612 31.1731 428.714 31.1731Z" fill="black"/>
<path d="M434.535 18.3983C437.464 18.3983 440.177 18.7037 442.549 19.3146C447.112 20.4825 450.49 22.7823 452.071 26.1601C456.743 36.1319 444.184 51.907 423.989 61.3757C414.861 65.6519 405.716 67.9337 398.044 68.1852H395.331C387.354 67.9517 381.281 65.3464 378.981 60.4414C374.291 50.4696 386.868 34.6945 407.063 25.2258C413.244 22.3331 419.407 20.3567 425.138 19.3146C428.462 18.7037 431.625 18.3983 434.553 18.3983M403.578 56.6863C407.567 56.6863 414.035 53.9014 420.395 49.1401C429.181 42.5461 434.409 34.6765 432.074 31.5502C431.427 30.6878 430.259 30.2746 428.714 30.2746C424.725 30.2746 418.257 33.0595 411.897 37.8208C403.093 44.4147 397.882 52.2843 400.218 55.4106C400.865 56.273 402.033 56.6863 403.578 56.6863ZM434.553 16.6016C431.499 16.6016 428.211 16.925 424.797 17.5538C418.796 18.6498 412.382 20.752 406.291 23.6088C396.283 28.2982 387.749 34.6585 382.287 41.522C376.537 48.7448 374.777 55.734 377.346 61.214C379.879 66.6221 386.24 69.7484 395.277 69.9999H398.044C406.273 69.7124 415.742 67.233 424.761 63.0107C446.16 52.9671 458.881 36.4553 453.706 25.4055C451.927 21.6324 448.244 18.9193 442.998 17.5718C440.482 16.925 437.644 16.6016 434.535 16.6016H434.553ZM403.578 54.8895C402.626 54.8895 401.925 54.6919 401.655 54.3326C400.577 52.8952 403.614 46.2833 412.975 39.2581C418.796 34.8921 424.977 32.0713 428.714 32.0713C429.666 32.0713 430.367 32.2689 430.618 32.6283C431.696 34.0656 428.678 40.6775 419.299 47.7027C413.478 52.0687 407.297 54.8895 403.56 54.8895H403.578Z" fill="white"/>
</g>
<defs>
<clipPath id="clip0_93_189">
<rect width="454.838" height="70" fill="white"/>
</clipPath>
</defs>
</svg>
