<?xml version="1.0" encoding="utf-8"?>
<!-- Generator: Adobe Illustrator 26.0.1, SVG Export Plug-In . SVG Version: 6.00 Build 0)  -->
<svg version="1.1" id="Layer_1" xmlns="http://www.w3.org/2000/svg" xmlns:xlink="http://www.w3.org/1999/xlink" x="0px" y="0px"
	 viewBox="0 0 100 100" style="enable-background:new 0 0 100 100;" xml:space="preserve">
<style type="text/css">
	.st0{fill:#FFFFFF;}
</style>
<path class="st0" d="M88.8,12c-1,0-1.9,0.3-2.8,0.7c-0.8,0.3-5.7,2.4-12.9,5.5s-16.5,7.1-25.8,11.1c-18.5,7.9-36.8,15.8-36.8,15.8
	l0.1-0.1c0,0-1.1,0.4-2.2,1.1c-0.6,0.4-1.2,0.9-1.6,1.6S5.9,49.4,6,50.5c0.5,3.8,4.5,4.9,4.5,4.9l0,0l17.8,6.1
	c0.5,1.5,5.4,18,6.5,21.5c0.6,1.9,1.2,3,1.8,3.8c0.3,0.4,0.6,0.7,0.9,0.9c0.1,0.1,0.3,0.1,0.4,0.2c0,0,0,0,0,0c0,0,0,0,0.1,0l0,0
	c0,0,0.1,0,0.1,0c0.1,0,0.1,0,0.2,0c2,0.7,3.7-0.6,3.7-0.6l0.1-0.1l10.9-10.1l17.8,13.8l0.2,0.1c3.1,1.4,5.9,0.6,7.5-0.7
	s2.2-2.9,2.2-2.9l0.1-0.2l13-68c0.3-1.5,0.4-2.8,0.1-4s-1.1-2.2-2-2.8S89.7,11.9,88.8,12z M88.9,16c0.4,0,0.7,0,0.8,0.1
	s0.1,0,0.2,0.4s0.1,1-0.1,2.1l0,0l-13,67.6c0,0.1-0.3,0.7-0.9,1.2c-0.6,0.5-1.3,0.9-3.2,0.1L53.3,72.4L52.7,72l0,0l-5.8-4.4
	l32.6-38.4c0.7-0.8,0.6-2.1-0.2-2.8c-0.4-0.3-0.9-0.5-1.3-0.5c-0.4,0-0.7,0.1-1.1,0.3L29.7,57.8l-17.8-6.1c0,0-1.8-1-1.9-1.7
	c0,0,0,0,0.1-0.1c0.1-0.1,0.3-0.4,0.6-0.6c0.6-0.4,1.2-0.6,1.2-0.6l0.1,0l0.1,0c0,0,18.2-7.8,36.8-15.8c9.3-4,18.6-8,25.8-11.1
	c7.2-3.1,12.4-5.3,12.8-5.5C88,16.1,88.5,16.1,88.9,16z M67.2,37.6L42.5,66.7l0,0c0,0-0.1,0.1-0.1,0.1c0,0.1-0.1,0.1-0.1,0.2
	c-0.1,0.2-0.2,0.5-0.3,0.8c0,0,0,0,0,0l-3.2,14.5c-0.1-0.2-0.1-0.2-0.1-0.4v0c-1-3.3-5.7-18.9-6.3-21L67.2,37.6z M45.3,71.5l4.4,3.3
	l-6.5,6.1L45.3,71.5z"/>
</svg>
