<?xml version="1.0" encoding="utf-8"?>
<!-- Generator: Adobe Illustrator 26.0.1, SVG Export Plug-In . SVG Version: 6.00 Build 0)  -->
<svg version="1.1" id="Layer_1" xmlns="http://www.w3.org/2000/svg" xmlns:xlink="http://www.w3.org/1999/xlink" x="0px" y="0px"
	 viewBox="0 0 420 420" style="enable-background:new 0 0 420 420;" xml:space="preserve">
<style type="text/css">
	.st0{fill:#0455FC;}
	.st1{clip-path:url(#SVGID_00000042708275986463460860000013807746911925471890_);fill:#FFFFFF;}
</style>
<path class="st0" d="M75.7,411h268.6c36.9,0,66.8-29.9,66.8-66.8V75.7C411,38.8,381.2,9,344.3,9H75.7C38.8,9,9,38.8,9,75.7v268.6
	C9,381.2,38.8,411,75.7,411z"/>
<g>
	<defs>
		<rect id="SVGID_1_" y="0" width="420" height="420"/>
	</defs>
	<clipPath id="SVGID_00000104696196102501682030000014080241893234638261_">
		<use xlink:href="#SVGID_1_"  style="overflow:visible;"/>
	</clipPath>
	<path style="clip-path:url(#SVGID_00000104696196102501682030000014080241893234638261_);fill:#FFFFFF;" d="M159.5,227h-19.2v-42.8
		H159c4.1,0,7.4,0.9,9.7,2.8c2.4,1.9,3.5,4.5,3.5,7.8c0,2.3-0.7,4.3-2.2,6c-1.5,1.7-3.3,2.8-5.5,3.1v0.5c2.8,0.2,5.2,1.3,7,3.2
		c1.8,1.9,2.8,4.2,2.8,7c0,3.8-1.3,6.7-4,8.9C167.6,225.9,164,227,159.5,227 M149.2,191.1V202h6.7c2.4,0,4.3-0.5,5.5-1.4
		c1.3-0.9,1.9-2.3,1.9-4c0-1.7-0.6-3.1-1.8-4c-1.2-1-2.8-1.4-5-1.4H149.2z M149.2,220.2h8c2.6,0,4.5-0.5,5.9-1.6
		c1.4-1.1,2-2.6,2-4.6c0-2-0.7-3.4-2.1-4.5c-1.4-1-3.4-1.5-6.1-1.5h-7.8V220.2z"/>
	<path style="clip-path:url(#SVGID_00000104696196102501682030000014080241893234638261_);fill:#FFFFFF;" d="M177,227v-32.7h8.4v5.2
		h0.5c0.4-1.7,1.4-3,3-4.1c1.6-1.1,3.4-1.6,5.4-1.6c1.5,0,2.6,0.1,3.4,0.4v7.9c-0.9-0.4-2.3-0.5-4.1-0.5c-2.4,0-4.3,0.7-5.8,2
		c-1.5,1.3-2.2,3.1-2.2,5.4V227H177z"/>
	<path style="clip-path:url(#SVGID_00000104696196102501682030000014080241893234638261_);fill:#FFFFFF;" d="M203.3,189.8
		c-1.5,0-2.8-0.4-3.7-1.2c-0.9-0.8-1.4-1.9-1.4-3.1c0-1.3,0.5-2.4,1.4-3.2c0.9-0.8,2.2-1.2,3.7-1.2c1.5,0,2.8,0.4,3.7,1.2
		c0.9,0.8,1.4,1.9,1.4,3.2c0,1.3-0.5,2.3-1.4,3.1C206,189.4,204.8,189.8,203.3,189.8 M199,194.4h8.6V227H199V194.4z"/>
	<path style="clip-path:url(#SVGID_00000104696196102501682030000014080241893234638261_);fill:#FFFFFF;" d="M240.7,205.9h-8.1
		c-0.3-1.6-1-2.9-2.1-3.8c-1.1-0.9-2.6-1.4-4.4-1.4c-2.3,0-4.1,0.8-5.4,2.5c-1.3,1.7-1.9,4.1-1.9,7.3c0,3.2,0.6,5.7,1.9,7.5
		c1.3,1.7,3,2.6,5.4,2.6c1.8,0,3.2-0.4,4.3-1.3c1.1-0.8,1.8-2.1,2.1-3.7h8.1c-0.4,3.7-1.8,6.6-4.4,8.8c-2.6,2.2-6,3.2-10.2,3.2
		c-5.1,0-9-1.5-11.8-4.5c-2.8-3-4.2-7.2-4.2-12.7c0-5.4,1.4-9.6,4.1-12.6c2.8-2.9,6.7-4.4,11.8-4.4c4.3,0,7.7,1.1,10.2,3.3
		C238.9,199.1,240.4,202.1,240.7,205.9"/>
	<polygon style="clip-path:url(#SVGID_00000104696196102501682030000014080241893234638261_);fill:#FFFFFF;" points="252.4,207.1 
		263.3,194.4 273.1,194.4 260.7,208.4 274,227 263.8,227 254.2,213.8 251.9,216.2 251.9,227 243.2,227 243.2,181.9 251.9,181.9 
		251.9,207.1 	"/>
	
		<rect x="275.3" y="181.9" style="clip-path:url(#SVGID_00000104696196102501682030000014080241893234638261_);fill:#FFFFFF;" width="8.6" height="45.2"/>
	<path style="clip-path:url(#SVGID_00000104696196102501682030000014080241893234638261_);fill:#FFFFFF;" d="M292.4,238.9
		c-1.8,0-2.9,0-3.3-0.1v-6.9c0.2,0,0.8,0.1,2,0.1c1.6,0,2.9-0.3,3.9-0.8c0.9-0.6,1.6-1.5,1.9-2.7l0.3-1.2l-11.5-32.9h9.5l6.9,24.8
		h0.5l6.9-24.8h9.1l-11.3,33.2c-1.4,4.2-3.2,7.1-5.4,8.8C299.7,238.1,296.5,238.9,292.4,238.9"/>
	<path style="clip-path:url(#SVGID_00000104696196102501682030000014080241893234638261_);fill:#FFFFFF;" d="M136.5,188.7v4.1
		c0,2.5-2,4.4-4.4,4.4H95.5c-2.5,0-4.4-2-4.4-4.4v-4.1c0-2.5,2-4.4,4.4-4.4h36.6C134.5,184.3,136.5,186.3,136.5,188.7"/>
	<path style="clip-path:url(#SVGID_00000104696196102501682030000014080241893234638261_);fill:#FFFFFF;" d="M136.5,205.5v17.1
		c0,2.5-2,4.4-4.4,4.4H95.5c-2.5,0-4.4-2-4.4-4.4v-17.1c0-2.5,2-4.4,4.4-4.4h36.6C134.5,201,136.5,203,136.5,205.5"/>
	<path style="clip-path:url(#SVGID_00000104696196102501682030000014080241893234638261_);fill:#FFFFFF;" d="M324.7,192.5
		c-0.8,0-1.5-0.2-2.2-0.6c-0.7-0.4-1.2-0.9-1.6-1.6c-0.4-0.7-0.6-1.4-0.6-2.2c0-0.8,0.2-1.5,0.6-2.2c0.4-0.7,0.9-1.2,1.6-1.6
		c0.7-0.4,1.4-0.6,2.2-0.6c0.8,0,1.5,0.2,2.2,0.6c0.7,0.4,1.2,0.9,1.6,1.6c0.4,0.7,0.6,1.4,0.6,2.2c0,0.8-0.2,1.5-0.6,2.2
		c-0.4,0.7-0.9,1.2-1.6,1.6C326.2,192.3,325.5,192.5,324.7,192.5 M324.7,191.4c0.9,0,1.7-0.3,2.3-0.9c0.6-0.6,0.9-1.4,0.9-2.3
		c0-0.9-0.3-1.7-0.9-2.3c-0.6-0.6-1.4-0.9-2.3-0.9c-0.9,0-1.7,0.3-2.3,0.9c-0.6,0.6-0.9,1.4-0.9,2.3c0,0.9,0.3,1.6,0.9,2.3
		C323,191.1,323.8,191.4,324.7,191.4 M324,190.1h-1v-4h2.1c0.4,0,0.8,0.1,1.1,0.3c0.3,0.2,0.4,0.5,0.4,0.9c0,0.3-0.1,0.6-0.2,0.8
		c-0.1,0.2-0.4,0.4-0.6,0.4l1,1.5h-1.2l-0.9-1.3H324V190.1z M324,187v1h0.8c0.4,0,0.6-0.2,0.6-0.5c0-0.3-0.2-0.5-0.6-0.5H324z"/>
</g>
</svg>
